<svg width="112.000000" height="112.000000" viewBox="0 0 112 112" fill="none" xmlns="http://www.w3.org/2000/svg" xmlns:xlink="http://www.w3.org/1999/xlink">
	<desc>
			Created with Pixso.
	</desc>
	<defs>
		<clipPath id="clip30_880">
			<rect id="ce-providers-icon" width="112.000000" height="112.000000" fill="white" fill-opacity="0"/>
		</clipPath>
	</defs>
	<g clip-path="url(#clip30_880)">
		<circle id="Ellipse 83" cx="56.000000" cy="56.000000" r="56.000000" fill="#283540" fill-opacity="1.000000"/>
		<circle id="Ellipse 84" cx="56.500000" cy="55.500000" r="44.500000" fill="#FFFFFF" fill-opacity="1.000000"/>
		<path id="Vector" d="M29.56 74.03L29.56 74.06C28.96 74.65 28.03 74.65 27.43 74.06C26.84 73.46 26.84 72.53 27.43 71.93L27.46 71.93L29.56 74.03ZM79.62 41.76L79.62 41.74C80.18 41.11 81.11 41.05 81.74 41.61C82.37 42.17 82.42 43.1 81.87 43.73L81.84 43.73L79.62 41.76ZM72.51 41.48L72.5 41.5C71.66 41.5 71 40.84 71 40C71 39.15 71.66 38.5 72.5 38.5L72.51 38.52L72.51 41.48ZM84.98 50.97L85 50.99C85 51.83 84.33 52.49 83.5 52.49C82.66 52.49 82 51.83 82 50.99L82.01 50.97L84.98 50.97ZM36.76 46.96L36.75 46.98C35.91 46.98 35.25 46.32 35.25 45.48C35.25 44.64 35.91 43.98 36.75 43.98L36.76 44L36.76 46.96ZM53.23 44L53.25 43.98C54.08 43.98 54.75 44.64 54.75 45.48C54.75 46.32 54.08 46.98 53.25 46.98L53.23 46.96L53.23 44Z" fill="#000000" fill-opacity="0" fill-rule="nonzero"/>
		<path id="Vector" d="M28.5 73L41.52 59.98C43.17 58.33 44 57.49 45.05 57.43C46.09 57.37 47.01 58.11 48.84 59.57L54.66 64.23C56.6 65.78 57.56 66.55 58.66 66.46C59.74 66.36 60.57 65.44 62.22 63.6L80.75 42.73M72.5 40L78 40C80.59 40 81.89 40 82.68 40.79C83.5 41.6 83.5 42.89 83.5 45.48L83.5 50.99M36.75 45.48L53.25 45.48" stroke="#283540" stroke-opacity="1.000000" stroke-width="3.000000" stroke-linejoin="round" stroke-linecap="round"/>
	</g>
</svg>
