<svg width="89.717773" height="90.000000" viewBox="0 0 89.7178 90" fill="none" xmlns="http://www.w3.org/2000/svg" xmlns:xlink="http://www.w3.org/1999/xlink">
	<desc>
			Created with Pixso.
	</desc>
	<defs/>
	<rect id="Rectangle 17841" rx="20.000000" width="89.717865" height="90.000000" fill="#3E5162" fill-opacity="1.000000"/>
	<rect id="Rectangle 17841" x="0.500000" y="0.500000" rx="20.000000" width="88.717865" height="89.000000" stroke="#FFFFFF" stroke-opacity="0.790000" stroke-width="1.000000"/>
	<path id="Rectangle 2177" d="M43.04 66.58C34.22 66.58 29.81 66.58 27.07 63.99C24.33 61.4 24.33 57.24 24.33 48.91L24.33 40.08C24.33 31.75 24.33 27.59 27.07 25C29.81 22.41 34.22 22.41 43.04 22.41L45.38 22.41C54.2 22.41 58.61 22.41 61.35 25C64.08 27.59 64.08 31.75 64.08 40.08M43.11 66.58L46.42 66.58" stroke="#FFFFFF" stroke-opacity="1.000000" stroke-width="2.500000" stroke-linecap="round"/>
	<path id="Vector 4435" d="M35.38 33.45L53.04 33.45" stroke="#FFFFFF" stroke-opacity="1.000000" stroke-width="2.500000" stroke-linecap="round"/>
	<path id="Vector 4436" d="M35.38 44.5L46.42 44.5" stroke="#FFFFFF" stroke-opacity="1.000000" stroke-width="2.500000" stroke-linecap="round"/>
	<path id="Ellipse 1570" d="M59.67 46.7C63.33 46.7 66.29 49.66 66.29 53.32C66.29 56.97 63.33 59.93 59.67 59.93C56.01 59.93 53.04 56.97 53.04 53.32C53.04 49.66 56.01 46.7 59.67 46.7ZM56.36 59.05L54.36 66.01C54.27 66.36 54.62 66.66 54.96 66.53L59.34 64.78C59.55 64.69 59.79 64.69 60 64.78L64.42 66.55C64.75 66.68 65.09 66.39 65.02 66.05L63.33 58.83" stroke="#FFFFFF" stroke-opacity="1.000000" stroke-width="2.500000" stroke-linejoin="round"/>
</svg>
