<svg width="89.717773" height="90.000000" viewBox="0 0 89.7178 90" fill="none" xmlns="http://www.w3.org/2000/svg" xmlns:xlink="http://www.w3.org/1999/xlink">
	<desc>
			Created with Pixso.
	</desc>
	<defs>
		<clipPath id="clip389_2155">
			<rect id="smart-phone-01" rx="0.000000" width="52.000000" height="52.000000" transform="translate(18.214844 18.500000)" fill="white" fill-opacity="0"/>
		</clipPath>
		<clipPath id="clip389_2156">
			<rect id="credit-card-pos" rx="0.000000" width="25.500000" height="25.500000" transform="translate(31.464844 31.750000)" fill="white" fill-opacity="0"/>
		</clipPath>
	</defs>
	<rect id="Rectangle 17841" rx="20.000000" width="89.717865" height="90.000000" fill="#3E5162" fill-opacity="1.000000"/>
	<rect id="Rectangle 17841" x="0.500000" y="0.500000" rx="20.000000" width="88.717865" height="89.000000" stroke="#FFFFFF" stroke-opacity="0.790000" stroke-width="1.000000"/>
	<g clip-path="url(#clip389_2155)">
		<path id="Rectangle 2268" d="M59.67 51.12C59.67 58.41 59.67 62.05 57.4 64.31C55.14 66.58 51.5 66.58 44.21 66.58C36.92 66.58 33.28 66.58 31.02 64.31C28.75 62.05 28.75 58.41 28.75 51.12L28.75 37.87C28.75 30.58 28.75 26.94 31.02 24.68C33.28 22.41 36.92 22.41 44.21 22.41C51.5 22.41 55.14 22.41 57.4 24.68C59.67 26.94 59.67 30.58 59.67 37.87L59.67 51.12Z" stroke="#FFFFFF" stroke-opacity="1.000000" stroke-width="2.500000"/>
		<path id="Vector 4483" d="M42 59.95L46.42 59.95" stroke="#FFFFFF" stroke-opacity="1.000000" stroke-width="2.500000" stroke-linejoin="round" stroke-linecap="round"/>
		<path id="Vector 4513" d="M37.58 22.41L37.78 23.59C38.21 26.15 38.42 27.42 39.3 28.2C40.21 29.01 41.51 29.04 44.21 29.04C46.91 29.04 48.21 29.01 49.12 28.2C50 27.42 50.21 26.15 50.64 23.59L50.83 22.41" stroke="#FFFFFF" stroke-opacity="1.000000" stroke-width="2.500000" stroke-linejoin="round"/>
	</g>
	<g clip-path="url(#clip389_2156)">
		<path id="Vector" d="M38.86 37L38.86 37L36.71 39.14Q32.43 43.42 32.21 45.37Q32.16 45.74 32.17 46.11Q32.17 46.21 32.18 46.31Q32.29 48.29 36.35 52.35Q40.42 56.41 42.39 56.53Q42.5 56.53 42.6 56.54Q42.97 56.54 43.34 56.5Q45.29 56.27 49.56 51.99L51.71 49.85Q55.98 45.57 56.21 43.62Q56.26 43.25 56.25 42.88Q56.25 42.78 56.24 42.68Q56.13 40.7 52.07 36.64Q48 32.58 46.03 32.46Q45.92 32.46 45.82 32.45Q45.45 32.45 45.08 32.49Q43.13 32.72 38.86 37ZM36.08 49.16Q36.79 49.96 37.77 50.94Q41.29 54.46 42.51 54.53Q42.52 54.53 42.54 54.53Q42.82 54.55 43.1 54.51Q44.36 54.36 48.15 50.58L50.29 48.43Q54.08 44.65 54.23 43.39Q54.26 43.11 54.25 42.83Q54.25 42.81 54.25 42.79Q54.18 41.58 50.65 38.05Q49.68 37.08 48.88 36.37L36.08 49.16ZM47.31 35.11Q46.41 34.49 45.91 34.46Q45.9 34.46 45.88 34.46Q45.6 34.44 45.32 34.48Q44.05 34.62 40.27 38.41L40.27 38.41L38.12 40.55Q34.34 44.34 34.19 45.6Q34.16 45.88 34.17 46.16Q34.17 46.18 34.17 46.2Q34.2 46.7 34.82 47.6L47.31 35.11ZM52.23 44.16L49.79 46.59C49.39 46.99 48.77 46.99 48.37 46.59C47.98 46.2 47.98 45.58 48.37 45.18L50.81 42.74C51.21 42.35 51.83 42.35 52.23 42.74C52.62 43.14 52.62 43.76 52.23 44.16ZM47.7 48.68L46.66 49.73C46.26 50.12 45.64 50.12 45.24 49.73C44.85 49.33 44.85 48.71 45.24 48.31L46.29 47.27C46.68 46.87 47.3 46.87 47.7 47.27C48.1 47.66 48.1 48.29 47.7 48.68Z" fill="#FFFFFF" fill-opacity="1.000000" fill-rule="evenodd"/>
		<path id="Vector 4526" d="M35.38 55.54L53.04 55.54" stroke="#FFFFFF" stroke-opacity="1.000000" stroke-width="2.000000" stroke-linecap="round"/>
	</g>
</svg>
