<svg width="89.717773" height="90.000000" viewBox="0 0 89.7178 90" fill="none" xmlns="http://www.w3.org/2000/svg" xmlns:xlink="http://www.w3.org/1999/xlink">
	<desc>
			Created with Pixso.
	</desc>
	<defs>
		<clipPath id="clip376_1805">
			<rect id="notification-square" rx="0.000000" width="52.000000" height="52.000000" transform="translate(18.214844 18.500000)" fill="white" fill-opacity="0"/>
		</clipPath>
		<clipPath id="clip376_1678">
			<rect id="analytics-02" rx="0.000000" width="25.957645" height="25.957645" transform="translate(31.880371 29.321533)" fill="white" fill-opacity="0"/>
		</clipPath>
	</defs>
	<rect id="Rectangle 17841" rx="20.000000" width="89.717865" height="90.000000" fill="#3E5162" fill-opacity="1.000000"/>
	<rect id="Rectangle 17841" x="0.500000" y="0.500000" rx="20.000000" width="88.717865" height="89.000000" stroke="#FFFFFF" stroke-opacity="0.790000" stroke-width="1.000000"/>
	<g clip-path="url(#clip376_1805)">
		<path id="Rectangle 2056" d="M64.08 43.39L64.08 45.6C64.08 55.49 64.08 60.43 61.01 63.51C57.94 66.58 53 66.58 43.11 66.58C33.22 66.58 28.27 66.58 25.2 63.51C22.13 60.43 22.13 55.49 22.13 45.6C22.13 35.71 22.13 30.76 25.2 27.69C28.27 24.62 33.22 24.62 43.11 24.62L45.31 24.62" stroke="#FFFFFF" stroke-opacity="1.000000" stroke-width="2.500000" stroke-linecap="round"/>
		<path id="Ellipse 40" d="M58.56 37.87C54.3 37.87 50.83 34.41 50.83 30.14C50.83 25.87 54.3 22.41 58.56 22.41C62.83 22.41 66.29 25.87 66.29 30.14C66.29 34.41 62.83 37.87 58.56 37.87Z" stroke="#FFFFFF" stroke-opacity="1.000000" stroke-width="2.500000"/>
		<path id="Vector 4052" d="M33.17 42.29L42 42.29" stroke="#FFFFFF" stroke-opacity="1.000000" stroke-width="2.500000" stroke-linejoin="round" stroke-linecap="round"/>
		<path id="Vector 4053" d="M33.17 53.33L50.83 53.33" stroke="#FFFFFF" stroke-opacity="1.000000" stroke-width="2.500000" stroke-linejoin="round" stroke-linecap="round"/>
	</g>
</svg>
