<svg width="89.717773" height="90.000000" viewBox="0 0 89.7178 90" fill="none" xmlns="http://www.w3.org/2000/svg" xmlns:xlink="http://www.w3.org/1999/xlink">
	<desc>
			Created with Pixso.
	</desc>
	<defs>
		<clipPath id="clip376_1792">
			<rect id="smart-phone-01" rx="0.000000" width="52.000000" height="52.000000" transform="translate(18.214844 18.500000)" fill="white" fill-opacity="0"/>
		</clipPath>
		<clipPath id="clip376_1793">
			<rect id="dashboard-square-03" rx="0.000000" width="18.000000" height="18.000000" transform="translate(35.214844 35.500000)" fill="white" fill-opacity="0"/>
		</clipPath>
	</defs>
	<rect id="Rectangle 17841" rx="20.000000" width="89.717865" height="90.000000" fill="#3E5162" fill-opacity="1.000000"/>
	<rect id="Rectangle 17841" x="0.500000" y="0.500000" rx="20.000000" width="88.717865" height="89.000000" stroke="#FFFFFF" stroke-opacity="0.790000" stroke-width="1.000000"/>
	<g clip-path="url(#clip376_1792)">
		<path id="Rectangle 2268" d="M59.67 51.12C59.67 58.41 59.67 62.05 57.4 64.31C55.14 66.58 51.5 66.58 44.21 66.58C36.92 66.58 33.28 66.58 31.02 64.31C28.75 62.05 28.75 58.41 28.75 51.12L28.75 37.87C28.75 30.58 28.75 26.94 31.02 24.68C33.28 22.41 36.92 22.41 44.21 22.41C51.5 22.41 55.14 22.41 57.4 24.68C59.67 26.94 59.67 30.58 59.67 37.87L59.67 51.12Z" stroke="#FFFFFF" stroke-opacity="1.000000" stroke-width="2.500000"/>
		<path id="Vector 4483" d="M42 59.95L46.42 59.95" stroke="#FFFFFF" stroke-opacity="1.000000" stroke-width="2.500000" stroke-linejoin="round" stroke-linecap="round"/>
		<path id="Vector 4513" d="M37.58 22.41L37.78 23.59C38.21 26.15 38.42 27.42 39.3 28.2C40.21 29.01 41.51 29.04 44.21 29.04C46.91 29.04 48.21 29.01 49.12 28.2C50 27.42 50.21 26.15 50.64 23.59L50.83 22.41" stroke="#FFFFFF" stroke-opacity="1.000000" stroke-width="2.500000" stroke-linejoin="round"/>
	</g>
	<g clip-path="url(#clip376_1793)">
		<path id="Rectangle 2229" d="M52.13 42.12C52.13 42.86 52.13 43.23 52.01 43.52C51.85 43.91 51.54 44.21 51.15 44.37C50.86 44.5 50.49 44.5 49.75 44.5C49.01 44.5 48.64 44.5 48.35 44.37C47.97 44.21 47.66 43.91 47.5 43.52C47.38 43.23 47.38 42.86 47.38 42.12L47.38 38.95C47.38 38.22 47.38 37.85 47.5 37.56C47.66 37.17 47.97 36.86 48.35 36.7C48.64 36.58 49.01 36.58 49.75 36.58C50.49 36.58 50.86 36.58 51.15 36.7C51.54 36.86 51.85 37.17 52.01 37.56C52.13 37.85 52.13 38.22 52.13 38.95L52.13 42.12Z" stroke="#FFFFFF" stroke-opacity="1.000000" stroke-width="2.000000"/>
		<path id="Rectangle 2230" d="M48.35 52.29C47.97 52.13 47.66 51.82 47.5 51.43C47.38 51.14 47.38 50.77 47.38 50.04C47.38 49.3 47.38 48.93 47.5 48.64C47.66 48.25 47.97 47.94 48.35 47.78C48.64 47.66 49.01 47.66 49.75 47.66C50.49 47.66 50.86 47.66 51.15 47.78C51.54 47.94 51.85 48.25 52.01 48.64C52.13 48.93 52.13 49.3 52.13 50.04C52.13 50.77 52.13 51.14 52.01 51.43C51.85 51.82 51.54 52.13 51.15 52.29C50.86 52.41 50.49 52.41 49.75 52.41C49.01 52.41 48.64 52.41 48.35 52.29Z" stroke="#FFFFFF" stroke-opacity="1.000000" stroke-width="2.000000"/>
		<path id="Rectangle 2231" d="M41.04 44.5C42.54 44.5 43.28 44.5 43.75 44.96C44.21 45.42 44.21 46.17 44.21 47.66L44.21 49.25C44.21 50.74 44.21 51.48 43.75 51.95C43.28 52.41 42.54 52.41 41.04 52.41L39.46 52.41C37.97 52.41 37.22 52.41 36.76 51.95C36.29 51.48 36.29 50.74 36.29 49.25L36.29 47.66C36.29 46.17 36.29 45.42 36.76 44.96C37.22 44.5 37.97 44.5 39.46 44.5L41.04 44.5Z" stroke="#FFFFFF" stroke-opacity="1.000000" stroke-width="2.000000"/>
		<path id="Rectangle 2232" d="M41.83 36.58C42.57 36.58 42.94 36.58 43.23 36.7C43.62 36.86 43.93 37.17 44.09 37.56C44.21 37.85 44.21 38.22 44.21 38.95C44.21 39.69 44.21 40.06 44.09 40.35C43.93 40.74 43.62 41.05 43.23 41.21C42.94 41.33 42.57 41.33 41.83 41.33L38.67 41.33C37.93 41.33 37.56 41.33 37.27 41.21C36.88 41.05 36.57 40.74 36.41 40.35C36.29 40.06 36.29 39.69 36.29 38.95C36.29 38.22 36.29 37.85 36.41 37.56C36.57 37.17 36.88 36.86 37.27 36.7C37.56 36.58 37.93 36.58 38.67 36.58L41.83 36.58Z" stroke="#FFFFFF" stroke-opacity="1.000000" stroke-width="2.000000"/>
	</g>
</svg>
