<svg width="18" height="18" viewBox="0 0 18 18" fill="none" xmlns="http://www.w3.org/2000/svg">
<path d="M10.8891 4.1506L10.8891 4.15059C10.7292 4.00142 10.7292 3.77489 10.8891 3.62572C11.0688 3.45809 11.3736 3.45809 11.5532 3.62573L16.6301 8.36251C16.79 8.51174 16.79 8.73826 16.6301 8.8875L11.5532 13.6242L11.5532 13.6243C11.3735 13.7919 11.0688 13.7919 10.8891 13.6243L10.8891 13.6242C10.7293 13.4751 10.7292 13.2486 10.8891 13.0994L14.341 9.87872L15.2688 9.01314L13.9999 9.01314L1.70193 9.01314C1.41911 9.01314 1.25 8.80726 1.25 8.625C1.25 8.44274 1.41911 8.23686 1.70193 8.23686L13.9999 8.23686L15.2688 8.23687L14.341 7.37128L10.8891 4.1506Z" fill="white" stroke="white"/>
</svg>
