<svg width="279" height="151" viewBox="0 0 279 151" fill="none" xmlns="http://www.w3.org/2000/svg">
<circle cx="262.5" cy="16.5" r="14" fill="white" stroke="currentColor" stroke-width="5"/>
<path fill-rule="evenodd" clip-rule="evenodd" d="M134.736 53.08L137.657 52.2023C123.942 25.0056 92.2978 10.7288 62.1151 19.8001C28.2647 29.9737 9.07082 65.6622 19.2444 99.5127C25.5132 120.371 41.4695 135.664 60.7141 141.951L59.6494 138.408C42.2039 132.036 27.8746 117.805 22.1175 98.6492C12.4208 66.3855 30.7149 32.3698 62.9786 22.6731C91.5697 14.0802 121.537 27.4683 134.736 53.08Z" fill="#283540"/>
<path d="M134.687 52.8088L246.878 19.5993" stroke="currentColor" stroke-width="3"/>
<circle cx="80.5356" cy="81.0917" r="56" transform="rotate(163.272 80.5356 81.0917)" fill="#283540"/>
<circle cx="80.2008" cy="81.7144" r="44.5" transform="rotate(163.272 80.2008 81.7144)" fill="white"/>
<path d="M66.0237 70.3337V68.8337H64.8353L64.5635 69.9907L66.0237 70.3337ZM81.0002 98.6673L80.6855 100.134L81.0002 100.201L81.315 100.134L81.0002 98.6673ZM95.9769 70.3337L97.4372 69.9907L97.1654 68.8337H95.9769V70.3337ZM81.0003 63.8337C77.6495 63.8337 75.0386 65.2874 72.7867 66.5173C70.4596 67.7883 68.4938 68.8337 66.0237 68.8337V71.8337C69.3668 71.8337 71.9743 70.3792 74.2247 69.1502C76.5503 67.88 78.5211 66.8337 81.0003 66.8337V63.8337ZM81.315 97.2007C70.6711 94.9166 64.3019 84.223 67.484 70.6768L64.5635 69.9907C61.0899 84.7779 68.0295 97.418 80.6855 100.134L81.315 97.2007ZM81.0003 66.8337C83.4916 66.8337 85.4649 67.8808 87.7866 69.1499C90.034 70.3785 92.6364 71.8337 95.9769 71.8337V68.8337C93.5107 68.8337 91.5515 67.789 89.2256 66.5176C86.974 65.2867 84.3624 63.8337 81.0003 63.8337V66.8337ZM81.315 100.134C93.971 97.418 100.911 84.7779 97.4372 69.9907L94.5167 70.6768C97.6988 84.2229 91.3294 94.9166 80.6855 97.2007L81.315 100.134Z" fill="#283540"/>
<path d="M72.8037 84.9172C72.8037 84.9172 74.5537 84.9172 76.887 89.0006C76.887 89.0006 83.3723 78.3061 89.137 76.1672" stroke="currentColor" stroke-width="3" stroke-linecap="round" stroke-linejoin="round"/>
</svg>
