<svg width="126" height="133" viewBox="0 0 126 133" fill="none" xmlns="http://www.w3.org/2000/svg">
<path d="M0 30C0 13.4315 13.4315 0 30 0H96C112.569 0 126 13.4315 126 30V103C126 119.569 112.569 133 96 133H30C13.4315 133 0 119.569 0 103V30Z" fill="white"/>
<path d="M0.5 30C0.5 13.7076 13.7076 0.5 30 0.5H96C112.292 0.5 125.5 13.7076 125.5 30V103C125.5 119.292 112.292 132.5 96 132.5H30C13.7076 132.5 0.5 119.292 0.5 103V30Z" stroke="white" stroke-opacity="0.5" style="mix-blend-mode:overlay"/>
</svg>
