<svg width="296" height="120" viewBox="0 0 296 120" fill="none" xmlns="http://www.w3.org/2000/svg">
<circle cx="16.4951" cy="68.5" r="14" fill="white" stroke="currentColor" stroke-width="5"/>
<path fill-rule="evenodd" clip-rule="evenodd" d="M172.026 67.2263H168.977C174.283 97.2196 200.479 120 231.995 120C267.342 120 295.995 91.3466 295.995 56.0003C295.995 34.2207 285.116 14.9819 268.495 3.42212V7.12101C283.368 18.2452 292.995 35.9986 292.995 56.0003C292.995 89.6897 265.685 117 231.995 117C202.141 117 177.296 95.5535 172.026 67.2263Z" fill="#283540"/>
<path d="M171.995 67.5002L27.9951 67.5002" stroke="currentColor" stroke-width="3"/>
<circle cx="231.995" cy="56.0002" r="56" fill="#283540"/>
<circle cx="232.495" cy="55.5002" r="44.5" fill="white"/>
<path d="M211.939 66.7388C211.354 67.3246 211.354 68.2744 211.939 68.8602C212.525 69.4459 213.475 69.4459 214.061 68.8602L211.939 66.7388ZM227.055 58.5245L226.118 59.6958L226.118 59.6958L227.055 58.5245ZM231.082 61.746L230.145 62.9173L230.145 62.9173L231.082 61.746ZM236.296 61.3033L235.175 60.3067L235.175 60.3067L236.296 61.3033ZM250.22 47.8967C250.77 47.2776 250.715 46.3294 250.095 45.7791C249.476 45.2287 248.528 45.2845 247.978 45.9036L250.22 47.8967ZM233.838 63.2823L233.965 64.7769L233.965 64.7769L233.838 63.2823ZM224.436 57.0488L224.519 58.5465L224.519 58.5465L224.436 57.0488ZM243.399 43.5002C242.571 43.5002 241.899 44.1718 241.899 45.0002C241.899 45.8287 242.571 46.5002 243.399 46.5002V43.5002ZM249.499 52.6C249.499 53.4284 250.17 54.1 250.999 54.1C251.827 54.1 252.499 53.4284 252.499 52.6H249.499ZM250.442 45.5567L251.503 44.4961L251.503 44.4961L250.442 45.5567ZM218.7 47.3001C217.871 47.3001 217.2 47.9717 217.2 48.8001C217.2 49.6285 217.871 50.3001 218.7 50.3001V47.3001ZM230.099 50.3001C230.928 50.3001 231.599 49.6285 231.599 48.8001C231.599 47.9717 230.928 47.3001 230.099 47.3001V50.3001ZM214.061 68.8602L223.055 59.8654L220.934 57.7441L211.939 66.7388L214.061 68.8602ZM226.118 59.6958L230.145 62.9173L232.019 60.5747L227.992 57.3532L226.118 59.6958ZM237.417 62.2998L250.22 47.8967L247.978 45.9036L235.175 60.3067L237.417 62.2998ZM230.145 62.9173C230.78 63.425 231.369 63.9002 231.901 64.2219C232.47 64.566 233.148 64.8463 233.965 64.7769L233.712 61.7877C233.773 61.7825 233.74 61.8281 233.453 61.6547C233.13 61.459 232.718 61.1339 232.019 60.5747L230.145 62.9173ZM235.175 60.3067C234.58 60.9758 234.23 61.3655 233.944 61.6131C233.69 61.8324 233.65 61.7929 233.711 61.7877L233.965 64.7769C234.782 64.7076 235.404 64.3169 235.906 63.8818C236.377 63.475 236.877 62.9073 237.417 62.2998L235.175 60.3067ZM223.055 59.8654C223.656 59.2653 224.007 58.9184 224.289 58.6998C224.538 58.5073 224.576 58.5433 224.519 58.5465L224.353 55.551C223.571 55.5944 222.959 55.9364 222.455 56.3259C221.985 56.6893 221.478 57.2003 220.934 57.7441L223.055 59.8654ZM227.992 57.3532C227.392 56.8728 226.832 56.4209 226.324 56.1116C225.78 55.7802 225.135 55.5077 224.353 55.551L224.519 58.5465C224.461 58.5496 224.494 58.5098 224.763 58.6736C225.068 58.8596 225.456 59.1656 226.118 59.6958L227.992 57.3532ZM243.399 46.5002H247.199V43.5002H243.399V46.5002ZM249.499 48.8001V52.6H252.499V48.8001H249.499ZM247.199 46.5002C248.137 46.5002 248.69 46.5034 249.084 46.5564C249.435 46.6036 249.429 46.6643 249.382 46.6174L251.503 44.4961C250.9 43.8927 250.167 43.6751 249.483 43.5832C248.843 43.4971 248.052 43.5002 247.199 43.5002V46.5002ZM252.499 48.8001C252.499 47.9469 252.502 47.1561 252.416 46.5155C252.324 45.8318 252.106 45.0995 251.503 44.4961L249.382 46.6174C249.335 46.5705 249.395 46.5642 249.443 46.9152C249.496 47.3094 249.499 47.8621 249.499 48.8001H252.499ZM218.7 50.3001H230.099V47.3001H218.7V50.3001Z" fill="#283540"/>
</svg>
