<svg width="278.176758" height="150.840332" viewBox="0 0 278.177 150.84" fill="none" xmlns="http://www.w3.org/2000/svg" xmlns:xlink="http://www.w3.org/1999/xlink">
	<desc>
			Created with Pixso.
	</desc>
	<defs/>
	<circle id="Ellipse 76" cx="261.676758" cy="16.500000" r="16.500000" fill="#FFFFFF" fill-opacity="1.000000"/>
	<circle id="Ellipse 76" cx="261.676758" cy="16.500000" r="14.000000" stroke="#283540" stroke-opacity="1.000000" stroke-width="5.000000"/>
	<path id="Subtract" d="M133.912 53.0798L136.833 52.2021C123.117 25.0054 91.4736 10.7285 61.291 19.7998C27.4404 29.9734 8.24707 65.6621 18.4199 99.5125C24.6895 120.37 40.6455 135.664 59.8896 141.95L58.8252 138.408C41.3799 132.035 27.0508 117.804 21.293 98.6489C11.5967 66.3853 29.8906 32.3696 62.1543 22.6729C90.7451 14.0798 120.712 27.468 133.912 53.0798Z" clip-rule="evenodd" fill="#283540" fill-opacity="1.000000" fill-rule="evenodd"/>
	<path id="Line 9" d="M133.86 52.8L246.05 19.59" stroke="#283540" stroke-opacity="1.000000" stroke-width="3.000000"/>
	<circle id="Ellipse 83" r="56.000000" transform="matrix(-0.957682 0.287828 -0.287828 -0.957682 79.7129 81.0918)" fill="#283540" fill-opacity="1.000000"/>
	<circle id="Ellipse 84" r="44.500000" transform="matrix(-0.957682 0.287828 -0.287828 -0.957682 79.376 81.7144)" fill="#FFFFFF" fill-opacity="1.000000"/>
</svg>
