<?xml version="1.0" encoding="utf-8"?>
<!-- Generator: Adobe Illustrator 28.2.0, SVG Export Plug-In . SVG Version: 6.00 Build 0)  -->
<svg version="1.1" xmlns="http://www.w3.org/2000/svg" xmlns:xlink="http://www.w3.org/1999/xlink" x="0px" y="0px"
	 viewBox="0 0 190 50.6" style="enable-background:new 0 0 190 50.6;" xml:space="preserve">
<style type="text/css">
	.st0{display:none;}
	.st1{display:inline;fill:#FF0000;}
	.st2{fill:#0091EA;}
	.st3{fill:#FFFFFF;}
</style>
<g id="Layer_2" class="st0">
	<rect y="-0.5" class="st1" width="192.4" height="52.7"/>
</g>
<g id="Layer_1">
	<path id="Vector" class="st2" d="M50.6,25.4c0-14-11.3-25.3-25.3-25.3S0,11.4,0,25.4s11.3,25.3,25.3,25.3S50.6,39.4,50.6,25.4z"/>
	<path id="Vector_00000059269610159252126480000002944927232010896797_" class="st3" d="M40.9,18l-0.1-0.8l-1.5,0.3l0.1,0.8
		c0.1,0.5,0.1,1,0.1,1.6c0,4.9-4,8.8-8.8,8.8s-8.8-4-8.8-8.8s4-8.8,8.8-8.8c0.3,0,0.7,0,1,0.1l0.8,0.1l0.2-1.6l-0.8-0.1
		c-0.4-0.1-0.8-0.1-1.2-0.1c-5.7,0-10.4,4.7-10.4,10.4c0,2.7,1.1,5.2,2.8,7.1l-6.5,6.5c-0.7-0.5-1.6-0.8-2.5-0.8
		c-2.4,0-4.4,2-4.4,4.4c0,2.4,2,4.4,4.4,4.4c2.4,0,4.4-2,4.4-4.4c0-0.9-0.3-1.8-0.8-2.5l6.5-6.5c1.8,1.4,4,2.2,6.4,2.2
		c5.7,0,10.4-4.7,10.4-10.4C41.1,19.2,41,18.6,40.9,18z"/>
	<path id="Vector_00000018207549188976509210000006384308592185052085_" class="st3" d="M23.9,20v0.4h0.8V20c0-3.5,2.8-6.3,6.3-6.3
		c0.2,0,0.5,0,0.8,0.1l0.4,0.1l0.1-0.8L31.9,13c-0.3,0-0.6,0-0.8,0C27.1,12.9,23.9,16.1,23.9,20z"/>
	<g>
		<path id="Vector_00000008126526669614361150000018123251925195385521_" class="st2" d="M74.1,37.4c-1.6,0-3.1-0.2-4.5-0.7
			c-1.3-0.5-2.5-1.2-3.5-2.2c-1-1-1.8-2.2-2.3-3.7c-0.5-1.5-0.8-3.2-0.8-5.1c0-1.8,0.3-3.5,0.8-5c0.5-1.5,1.3-2.7,2.3-3.7
			c1-1,2.1-1.7,3.5-2.3c1.4-0.5,2.9-0.8,4.5-0.8c1.2,0,2.4,0.2,3.6,0.4c1.2,0.3,2.5,0.8,4,1.5l0.2,0.1v4h-0.7l-0.1-0.1
			c-1.2-1-2.4-1.7-3.5-2.2c-1.2-0.4-2.4-0.7-3.7-0.7c-1.1,0-2,0.2-2.9,0.5c-0.8,0.3-1.6,0.9-2.3,1.6c-0.6,0.7-1.2,1.6-1.5,2.7
			c-0.4,1.1-0.5,2.4-0.5,3.8c0,1.5,0.2,2.8,0.6,3.9c0.4,1.1,0.9,1.9,1.5,2.6c0.6,0.7,1.4,1.2,2.3,1.5c0.9,0.3,1.8,0.5,2.8,0.5
			c1.4,0,2.7-0.2,3.8-0.7c1.2-0.5,2.3-1.2,3.3-2.1l0.1-0.1h0.7v4l-0.2,0.1c-0.5,0.2-1,0.5-1.5,0.7c-0.5,0.2-1,0.4-1.8,0.7
			c-0.6,0.2-1.3,0.4-2,0.5C75.8,37.3,75,37.4,74.1,37.4z"/>
		<path id="Vector_00000027589082282981172080000014867935585590146463_" class="st2" d="M107.1,37h-3.6V19.2l-6.2,11.7h-2.2
			l-6.2-11.7V37h-3.4V14.3h4.5l6.3,11.8l6.1-11.8h4.6V37z"/>
		<path id="Vector_00000009557720129145772700000009762640856078228919_" class="st2" d="M126,37h-15.1V14.3H126v3.3h-11.5v5.4h7.7
			v3.3h-7.7v7.5H126V37z"/>
		<path id="Vector_00000127738637887140421760000011502031114418412187_" class="st2" d="M152.7,37h-3.6V26.2h-10.3V37h-3.6V14.3
			h3.6v8.6h10.3v-8.6h3.6V37z"/>
		<path id="Vector_00000125583983560711184220000006641498707960020670_" class="st2" d="M162.5,37.7c-1.9,0-3.3-0.6-4.4-1.7
			c-1-1.1-1.6-2.8-1.6-5V19.7h3.5v9.9c0,0.8,0,1.6,0.1,2.1c0.1,0.5,0.2,1,0.5,1.4c0.2,0.4,0.5,0.6,0.9,0.8c0.4,0.2,0.9,0.3,1.7,0.3
			c0.7,0,1.4-0.2,2.2-0.5c0.8-0.3,1.5-0.8,2.2-1.3V19.7h3.5v17.4h-3.5v-1.5c-0.8,0.6-1.5,1-2.2,1.3
			C164.6,37.4,163.6,37.7,162.5,37.7z"/>
		<path id="Vector_00000087385833725212972760000002383629764045320853_" class="st2" d="M182.3,37.7c-1,0-1.8-0.1-2.6-0.3
			c-0.6-0.2-1.2-0.4-1.7-0.7l-0.1,0.6h-3.3v-24h3.5v7.9c0.6-0.5,1.3-0.9,2-1.2c0.9-0.4,2-0.6,3.2-0.6c2.1,0,3.8,0.8,5,2.4
			c1.2,1.6,1.8,3.8,1.8,6.6c0,1.4-0.2,2.7-0.6,3.9c-0.4,1.1-1,2.1-1.7,2.9c-0.7,0.8-1.6,1.4-2.4,1.9
			C184.4,37.4,183.4,37.7,182.3,37.7z M178.1,33.6c0.7,0.3,1.3,0.5,1.8,0.6c0.5,0.1,1.2,0.2,1.9,0.2c1.4,0,2.6-0.5,3.4-1.4
			c0.8-1,1.2-2.5,1.2-4.6c0-1.9-0.3-3.4-0.9-4.3c-0.6-0.9-1.5-1.4-2.9-1.4c-0.8,0-1.6,0.2-2.3,0.5c-0.8,0.3-1.5,0.7-2.1,1.2V33.6
			L178.1,33.6z"/>
	</g>
</g>
</svg>
