<svg width="87" height="51" viewBox="0 0 87 51" fill="none" xmlns="http://www.w3.org/2000/svg">
<path d="M69.288 42L71.6 36.816L71.872 37.28H68.696L69.192 36.776V38.232H68.224V36.4H72.576V37.096L70.4 42H69.288ZM75.3989 42.08C74.9563 42.08 74.5563 41.968 74.1989 41.744C73.8469 41.52 73.5696 41.1947 73.3669 40.768C73.1643 40.336 73.0629 39.8133 73.0629 39.2C73.0629 38.5867 73.1643 38.0667 73.3669 37.64C73.5696 37.208 73.8469 36.88 74.1989 36.656C74.5563 36.432 74.9563 36.32 75.3989 36.32C75.8469 36.32 76.2469 36.432 76.5989 36.656C76.9509 36.88 77.2283 37.208 77.4309 37.64C77.6389 38.0667 77.7429 38.5867 77.7429 39.2C77.7429 39.8133 77.6389 40.336 77.4309 40.768C77.2283 41.1947 76.9509 41.52 76.5989 41.744C76.2469 41.968 75.8469 42.08 75.3989 42.08ZM75.3989 41.176C75.6603 41.176 75.8869 41.1067 76.0789 40.968C76.2709 40.824 76.4203 40.6053 76.5269 40.312C76.6389 40.0187 76.6949 39.648 76.6949 39.2C76.6949 38.7467 76.6389 38.376 76.5269 38.088C76.4203 37.7947 76.2709 37.5787 76.0789 37.44C75.8869 37.296 75.6603 37.224 75.3989 37.224C75.1483 37.224 74.9243 37.296 74.7269 37.44C74.5349 37.5787 74.3829 37.7947 74.2709 38.088C74.1643 38.376 74.1109 38.7467 74.1109 39.2C74.1109 39.648 74.1643 40.0187 74.2709 40.312C74.3829 40.6053 74.5349 40.824 74.7269 40.968C74.9243 41.1067 75.1483 41.176 75.3989 41.176ZM79.2298 42L83.0538 36.4H83.8378L80.0138 42H79.2298ZM79.6938 39.416C79.4324 39.416 79.2004 39.352 78.9978 39.224C78.7951 39.096 78.6378 38.9173 78.5258 38.688C78.4138 38.4587 78.3577 38.1893 78.3577 37.88C78.3577 37.5707 78.4138 37.3013 78.5258 37.072C78.6378 36.8427 78.7951 36.664 78.9978 36.536C79.2004 36.408 79.4324 36.344 79.6938 36.344C79.9658 36.344 80.2004 36.408 80.3978 36.536C80.6004 36.664 80.7578 36.8427 80.8698 37.072C80.9818 37.3013 81.0378 37.5707 81.0378 37.88C81.0378 38.1893 80.9818 38.4587 80.8698 38.688C80.7578 38.9173 80.6004 39.096 80.3978 39.224C80.2004 39.352 79.9658 39.416 79.6938 39.416ZM79.7018 38.856C79.9151 38.856 80.0804 38.7733 80.1978 38.608C80.3204 38.4373 80.3818 38.1947 80.3818 37.88C80.3818 37.5653 80.3204 37.3253 80.1978 37.16C80.0804 36.9893 79.9151 36.904 79.7018 36.904C79.4884 36.904 79.3178 36.9893 79.1898 37.16C79.0671 37.3307 79.0058 37.5707 79.0058 37.88C79.0058 38.1893 79.0671 38.4293 79.1898 38.6C79.3178 38.7707 79.4884 38.856 79.7018 38.856ZM83.3658 42.056C83.1044 42.056 82.8724 41.992 82.6698 41.864C82.4671 41.736 82.3098 41.5573 82.1978 41.328C82.0858 41.0987 82.0298 40.8293 82.0298 40.52C82.0298 40.2107 82.0858 39.9413 82.1978 39.712C82.3098 39.4827 82.4671 39.304 82.6698 39.176C82.8724 39.048 83.1044 38.984 83.3658 38.984C83.6378 38.984 83.8724 39.048 84.0698 39.176C84.2724 39.304 84.4298 39.4827 84.5418 39.712C84.6538 39.9413 84.7098 40.2107 84.7098 40.52C84.7098 40.8293 84.6538 41.0987 84.5418 41.328C84.4298 41.5573 84.2724 41.736 84.0698 41.864C83.8724 41.992 83.6378 42.056 83.3658 42.056ZM83.3658 41.496C83.5791 41.496 83.7471 41.4107 83.8698 41.24C83.9924 41.0693 84.0538 40.8293 84.0538 40.52C84.0538 40.2107 83.9924 39.9707 83.8698 39.8C83.7471 39.6293 83.5791 39.544 83.3658 39.544C83.1578 39.544 82.9898 39.6293 82.8618 39.8C82.7391 39.9653 82.6778 40.2053 82.6778 40.52C82.6778 40.8347 82.7391 41.0773 82.8618 41.248C82.9898 41.4133 83.1578 41.496 83.3658 41.496Z" fill="white"/>
<path d="M2 32C5.96098 34.1667 15.44 37.2 21.6683 32C29.4537 25.5 27.8146 10.5 39.2878 9C50.761 7.5 51.5805 23 63.4634 18.5C72.9698 14.9 82.4488 5.33333 86 1" stroke="#C8C8C8" stroke-width="2" stroke-linecap="round"/>
<path d="M2 32C5.96098 34.1667 15.44 37.2 21.6683 32C29.4537 25.5 27.8146 10.5 39.2878 9.00003C50.761 7.50003 51.5805 23 63.4634 18.5" stroke="#44CDFC" stroke-width="3" stroke-linecap="round"/>
<circle cx="65.5" cy="17.5" r="4.5" fill="#44CDFC"/>
</svg>
