<svg width="140" height="159" viewBox="0 0 140 159" fill="none" xmlns="http://www.w3.org/2000/svg">
<g filter="url(#filter0_dddd_249_747)">
<foreignObject x="-93" y="-99" width="326" height="333"><div xmlns="http://www.w3.org/1999/xhtml" style="backdrop-filter:blur(50px);clip-path:url(#bgblur_0_249_747_clip_path);height:100%;width:100%"></div></foreignObject><g data-figma-bg-blur-radius="100">
<path d="M7 31C7 14.4315 20.4315 1 37 1H103C119.569 1 133 14.4315 133 31V104C133 120.569 119.569 134 103 134H37C20.4315 134 7 120.569 7 104V31Z" fill="white"/>
<path d="M7.5 31C7.5 14.7076 20.7076 1.5 37 1.5H103C119.292 1.5 132.5 14.7076 132.5 31V104C132.5 120.292 119.292 133.5 103 133.5H37C20.7076 133.5 7.5 120.292 7.5 104V31Z" stroke="white" stroke-opacity="0.5" style="mix-blend-mode:overlay"/>
</g>
<path d="M40.016 106.096C39.376 106.096 38.784 105.992 38.24 105.784C37.704 105.568 37.236 105.268 36.836 104.884C36.444 104.492 36.136 104.036 35.912 103.516C35.688 102.996 35.576 102.424 35.576 101.8C35.576 101.176 35.688 100.604 35.912 100.084C36.136 99.564 36.448 99.112 36.848 98.728C37.248 98.336 37.716 98.036 38.252 97.828C38.796 97.612 39.388 97.504 40.028 97.504C40.676 97.504 41.272 97.616 41.816 97.84C42.368 98.056 42.836 98.38 43.22 98.812L42.44 99.568C42.12 99.232 41.76 98.984 41.36 98.824C40.96 98.656 40.532 98.572 40.076 98.572C39.604 98.572 39.164 98.652 38.756 98.812C38.356 98.972 38.008 99.196 37.712 99.484C37.416 99.772 37.184 100.116 37.016 100.516C36.856 100.908 36.776 101.336 36.776 101.8C36.776 102.264 36.856 102.696 37.016 103.096C37.184 103.488 37.416 103.828 37.712 104.116C38.008 104.404 38.356 104.628 38.756 104.788C39.164 104.948 39.604 105.028 40.076 105.028C40.532 105.028 40.96 104.948 41.36 104.788C41.76 104.62 42.12 104.364 42.44 104.02L43.22 104.776C42.836 105.208 42.368 105.536 41.816 105.76C41.272 105.984 40.672 106.096 40.016 106.096ZM44.9319 106V97.6H48.2079C48.9439 97.6 49.5719 97.716 50.0919 97.948C50.6119 98.18 51.0119 98.516 51.2919 98.956C51.5719 99.396 51.7119 99.92 51.7119 100.528C51.7119 101.136 51.5719 101.66 51.2919 102.1C51.0119 102.532 50.6119 102.868 50.0919 103.108C49.5719 103.34 48.9439 103.456 48.2079 103.456H45.5919L46.1319 102.892V106H44.9319ZM46.1319 103.012L45.5919 102.412H48.1719C48.9399 102.412 49.5199 102.248 49.9119 101.92C50.3119 101.592 50.5119 101.128 50.5119 100.528C50.5119 99.928 50.3119 99.464 49.9119 99.136C49.5199 98.808 48.9399 98.644 48.1719 98.644H45.5919L46.1319 98.044V103.012ZM53.4748 106V97.6H56.7508C57.4868 97.6 58.1148 97.716 58.6348 97.948C59.1548 98.18 59.5548 98.516 59.8348 98.956C60.1148 99.396 60.2548 99.92 60.2548 100.528C60.2548 101.136 60.1148 101.66 59.8348 102.1C59.5548 102.532 59.1548 102.864 58.6348 103.096C58.1148 103.328 57.4868 103.444 56.7508 103.444H54.1348L54.6748 102.892V106H53.4748ZM59.0908 106L56.9548 102.952H58.2388L60.3988 106H59.0908ZM54.6748 103.012L54.1348 102.424H56.7148C57.4828 102.424 58.0628 102.26 58.4548 101.932C58.8548 101.596 59.0548 101.128 59.0548 100.528C59.0548 99.928 58.8548 99.464 58.4548 99.136C58.0628 98.808 57.4828 98.644 56.7148 98.644H54.1348L54.6748 98.044V103.012ZM67.6363 106.096C67.0683 106.096 66.5643 106.004 66.1243 105.82C65.6843 105.636 65.3363 105.38 65.0803 105.052C64.8243 104.724 64.6963 104.344 64.6963 103.912C64.6963 103.536 64.7803 103.192 64.9482 102.88C65.1163 102.568 65.3843 102.268 65.7523 101.98C66.1203 101.684 66.6043 101.38 67.2043 101.068C67.6923 100.812 68.0723 100.588 68.3443 100.396C68.6243 100.204 68.8203 100.024 68.9323 99.856C69.0523 99.68 69.1123 99.492 69.1123 99.292C69.1123 99.02 69.0163 98.8 68.8243 98.632C68.6323 98.456 68.3563 98.368 67.9963 98.368C67.6203 98.368 67.3243 98.464 67.1083 98.656C66.9003 98.84 66.7963 99.084 66.7963 99.388C66.7963 99.54 66.8203 99.688 66.8683 99.832C66.9243 99.968 67.0203 100.124 67.1562 100.3C67.3003 100.468 67.5043 100.684 67.7683 100.948L72.2083 105.364L71.5603 106.132L66.8443 101.44C66.5643 101.16 66.3443 100.912 66.1843 100.696C66.0243 100.472 65.9083 100.256 65.8363 100.048C65.7643 99.84 65.7283 99.628 65.7283 99.412C65.7283 99.036 65.8203 98.708 66.0043 98.428C66.1963 98.14 66.4603 97.92 66.7963 97.768C67.1403 97.608 67.5403 97.528 67.9963 97.528C68.4203 97.528 68.7883 97.6 69.1003 97.744C69.4123 97.88 69.6523 98.08 69.8203 98.344C69.9963 98.6 70.0843 98.912 70.0843 99.28C70.0843 99.6 70.0043 99.896 69.8443 100.168C69.6923 100.44 69.4443 100.704 69.1003 100.96C68.7563 101.216 68.2923 101.492 67.7083 101.788C67.2283 102.036 66.8523 102.268 66.5803 102.484C66.3083 102.692 66.1123 102.9 65.9923 103.108C65.8803 103.316 65.8243 103.544 65.8243 103.792C65.8243 104.056 65.9003 104.292 66.0523 104.5C66.2123 104.7 66.4323 104.856 66.7123 104.968C67.0003 105.08 67.3323 105.136 67.7083 105.136C68.2443 105.136 68.7283 105.02 69.1603 104.788C69.5923 104.556 69.9523 104.208 70.2403 103.744C70.5363 103.28 70.7523 102.704 70.8883 102.016L71.8123 102.316C71.6523 103.124 71.3763 103.808 70.9843 104.368C70.6003 104.928 70.1243 105.356 69.5563 105.652C68.9883 105.948 68.3483 106.096 67.6363 106.096ZM75.5935 106L79.3975 97.6H80.5855L84.4015 106H83.1415L79.7455 98.272H80.2255L76.8295 106H75.5935ZM77.2135 103.9L77.5375 102.94H82.2655L82.6135 103.9H77.2135ZM86.7465 101.224H91.0665V102.244H86.7465V101.224ZM86.8545 104.956H91.7505V106H85.6545V97.6H91.5825V98.644H86.8545V104.956ZM93.6936 106V97.6H97.2336C98.1296 97.6 98.9176 97.776 99.5976 98.128C100.286 98.48 100.818 98.972 101.194 99.604C101.578 100.236 101.77 100.968 101.77 101.8C101.77 102.632 101.578 103.364 101.194 103.996C100.818 104.628 100.286 105.12 99.5976 105.472C98.9176 105.824 98.1296 106 97.2336 106H93.6936ZM94.8936 104.956H97.1616C97.8576 104.956 98.4576 104.824 98.9616 104.56C99.4736 104.296 99.8696 103.928 100.15 103.456C100.43 102.976 100.57 102.424 100.57 101.8C100.57 101.168 100.43 100.616 100.15 100.144C99.8696 99.672 99.4736 99.304 98.9616 99.04C98.4576 98.776 97.8576 98.644 97.1616 98.644H94.8936V104.956Z" fill="#283540"/>
<path d="M26.352 117.224H30.672V118.244H26.352V117.224ZM26.46 120.956H31.356V122H25.26V113.6H31.188V114.644H26.46V120.956ZM32.4887 119.204V118.208H35.7167V119.204H32.4887ZM41.4965 122.096C40.8565 122.096 40.2645 121.992 39.7205 121.784C39.1845 121.568 38.7165 121.268 38.3165 120.884C37.9245 120.492 37.6165 120.036 37.3925 119.516C37.1685 118.996 37.0565 118.424 37.0565 117.8C37.0565 117.176 37.1685 116.604 37.3925 116.084C37.6165 115.564 37.9285 115.112 38.3285 114.728C38.7285 114.336 39.1965 114.036 39.7325 113.828C40.2765 113.612 40.8685 113.504 41.5085 113.504C42.1565 113.504 42.7525 113.616 43.2965 113.84C43.8485 114.056 44.3165 114.38 44.7005 114.812L43.9205 115.568C43.6005 115.232 43.2405 114.984 42.8405 114.824C42.4405 114.656 42.0125 114.572 41.5565 114.572C41.0845 114.572 40.6445 114.652 40.2365 114.812C39.8365 114.972 39.4885 115.196 39.1925 115.484C38.8965 115.772 38.6645 116.116 38.4965 116.516C38.3365 116.908 38.2565 117.336 38.2565 117.8C38.2565 118.264 38.3365 118.696 38.4965 119.096C38.6645 119.488 38.8965 119.828 39.1925 120.116C39.4885 120.404 39.8365 120.628 40.2365 120.788C40.6445 120.948 41.0845 121.028 41.5565 121.028C42.0125 121.028 42.4405 120.948 42.8405 120.788C43.2405 120.62 43.6005 120.364 43.9205 120.02L44.7005 120.776C44.3165 121.208 43.8485 121.536 43.2965 121.76C42.7525 121.984 42.1525 122.096 41.4965 122.096ZM47.5043 117.224H51.8243V118.244H47.5043V117.224ZM47.6123 120.956H52.5083V122H46.4123V113.6H52.3403V114.644H47.6123V120.956ZM54.4514 122V113.6H57.7274C58.4634 113.6 59.0914 113.716 59.6114 113.948C60.1314 114.18 60.5314 114.516 60.8114 114.956C61.0914 115.396 61.2314 115.92 61.2314 116.528C61.2314 117.136 61.0914 117.66 60.8114 118.1C60.5314 118.532 60.1314 118.864 59.6114 119.096C59.0914 119.328 58.4634 119.444 57.7274 119.444H55.1114L55.6514 118.892V122H54.4514ZM60.0674 122L57.9314 118.952H59.2154L61.3754 122H60.0674ZM55.6514 119.012L55.1114 118.424H57.6914C58.4594 118.424 59.0394 118.26 59.4314 117.932C59.8314 117.596 60.0314 117.128 60.0314 116.528C60.0314 115.928 59.8314 115.464 59.4314 115.136C59.0394 114.808 58.4594 114.644 57.6914 114.644H55.1114L55.6514 114.044V119.012ZM64.721 122V114.644H61.841V113.6H68.789V114.644H65.909V122H64.721ZM70.0959 122V113.6H71.2959V122H70.0959ZM74.8908 117.572H79.2228V118.604H74.8908V117.572ZM75.0108 122H73.8108V113.6H79.7388V114.644H75.0108V122ZM81.428 122V113.6H82.628V122H81.428ZM88.8988 122.096C88.2588 122.096 87.6668 121.992 87.1228 121.784C86.5868 121.568 86.1188 121.268 85.7188 120.884C85.3268 120.492 85.0188 120.036 84.7948 119.516C84.5708 118.996 84.4588 118.424 84.4588 117.8C84.4588 117.176 84.5708 116.604 84.7948 116.084C85.0188 115.564 85.3308 115.112 85.7308 114.728C86.1308 114.336 86.5988 114.036 87.1348 113.828C87.6788 113.612 88.2708 113.504 88.9108 113.504C89.5588 113.504 90.1548 113.616 90.6988 113.84C91.2508 114.056 91.7188 114.38 92.1028 114.812L91.3228 115.568C91.0028 115.232 90.6428 114.984 90.2428 114.824C89.8428 114.656 89.4148 114.572 88.9588 114.572C88.4868 114.572 88.0468 114.652 87.6388 114.812C87.2388 114.972 86.8908 115.196 86.5948 115.484C86.2988 115.772 86.0668 116.116 85.8988 116.516C85.7388 116.908 85.6588 117.336 85.6588 117.8C85.6588 118.264 85.7388 118.696 85.8988 119.096C86.0668 119.488 86.2988 119.828 86.5948 120.116C86.8908 120.404 87.2388 120.628 87.6388 120.788C88.0468 120.948 88.4868 121.028 88.9588 121.028C89.4148 121.028 89.8428 120.948 90.2428 120.788C90.6428 120.62 91.0028 120.364 91.3228 120.02L92.1028 120.776C91.7188 121.208 91.2508 121.536 90.6988 121.76C90.1548 121.984 89.5548 122.096 88.8988 122.096ZM92.3435 122L96.1475 113.6H97.3355L101.151 122H99.8915L96.4955 114.272H96.9755L93.5795 122H92.3435ZM93.9635 119.9L94.2875 118.94H99.0155L99.3635 119.9H93.9635ZM103.651 122V114.644H100.771V113.6H107.719V114.644H104.839V122H103.651ZM110.118 117.224H114.438V118.244H110.118V117.224ZM110.226 120.956H115.122V122H109.026V113.6H114.954V114.644H110.226V120.956Z" fill="#283540"/>
<path d="M34.732 25.12C34.076 25.12 33.448 25.028 32.848 24.844C32.248 24.652 31.772 24.408 31.42 24.112L31.96 22.9C32.296 23.164 32.712 23.384 33.208 23.56C33.704 23.736 34.212 23.824 34.732 23.824C35.172 23.824 35.528 23.776 35.8 23.68C36.072 23.584 36.272 23.456 36.4 23.296C36.528 23.128 36.592 22.94 36.592 22.732C36.592 22.476 36.5 22.272 36.316 22.12C36.132 21.96 35.892 21.836 35.596 21.748C35.308 21.652 34.984 21.564 34.624 21.484C34.272 21.404 33.916 21.312 33.556 21.208C33.204 21.096 32.88 20.956 32.584 20.788C32.296 20.612 32.06 20.38 31.876 20.092C31.692 19.804 31.6 19.436 31.6 18.988C31.6 18.532 31.72 18.116 31.96 17.74C32.208 17.356 32.58 17.052 33.076 16.828C33.58 16.596 34.216 16.48 34.984 16.48C35.488 16.48 35.988 16.544 36.484 16.672C36.98 16.8 37.412 16.984 37.78 17.224L37.288 18.436C36.912 18.212 36.524 18.048 36.124 17.944C35.724 17.832 35.34 17.776 34.972 17.776C34.54 17.776 34.188 17.828 33.916 17.932C33.652 18.036 33.456 18.172 33.328 18.34C33.208 18.508 33.148 18.7 33.148 18.916C33.148 19.172 33.236 19.38 33.412 19.54C33.596 19.692 33.832 19.812 34.12 19.9C34.416 19.988 34.744 20.076 35.104 20.164C35.464 20.244 35.82 20.336 36.172 20.44C36.532 20.544 36.856 20.68 37.144 20.848C37.44 21.016 37.676 21.244 37.852 21.532C38.036 21.82 38.128 22.184 38.128 22.624C38.128 23.072 38.004 23.488 37.756 23.872C37.516 24.248 37.144 24.552 36.64 24.784C36.136 25.008 35.5 25.12 34.732 25.12ZM42.4709 25.084C41.7989 25.084 41.1989 24.944 40.6709 24.664C40.1509 24.376 39.7429 23.984 39.4469 23.488C39.1509 22.992 39.0029 22.428 39.0029 21.796C39.0029 21.156 39.1509 20.592 39.4469 20.104C39.7429 19.608 40.1509 19.22 40.6709 18.94C41.1989 18.66 41.7989 18.52 42.4709 18.52C43.0949 18.52 43.6429 18.648 44.1149 18.904C44.5949 19.152 44.9589 19.52 45.2069 20.008L44.0549 20.68C43.8629 20.376 43.6269 20.152 43.3469 20.008C43.0749 19.864 42.7789 19.792 42.4589 19.792C42.0909 19.792 41.7589 19.872 41.4629 20.032C41.1669 20.192 40.9349 20.424 40.7669 20.728C40.5989 21.024 40.5149 21.38 40.5149 21.796C40.5149 22.212 40.5989 22.572 40.7669 22.876C40.9349 23.172 41.1669 23.4 41.4629 23.56C41.7589 23.72 42.0909 23.8 42.4589 23.8C42.7789 23.8 43.0749 23.728 43.3469 23.584C43.6269 23.44 43.8629 23.216 44.0549 22.912L45.2069 23.584C44.9589 24.064 44.5949 24.436 44.1149 24.7C43.6429 24.956 43.0949 25.084 42.4709 25.084ZM49.2898 25.084C48.6338 25.084 48.0498 24.944 47.5378 24.664C47.0258 24.376 46.6218 23.984 46.3258 23.488C46.0298 22.992 45.8818 22.428 45.8818 21.796C45.8818 21.156 46.0298 20.592 46.3258 20.104C46.6218 19.608 47.0258 19.22 47.5378 18.94C48.0498 18.66 48.6338 18.52 49.2898 18.52C49.9538 18.52 50.5418 18.66 51.0538 18.94C51.5738 19.22 51.9778 19.604 52.2658 20.092C52.5618 20.58 52.7098 21.148 52.7098 21.796C52.7098 22.428 52.5618 22.992 52.2658 23.488C51.9778 23.984 51.5738 24.376 51.0538 24.664C50.5418 24.944 49.9538 25.084 49.2898 25.084ZM49.2898 23.8C49.6578 23.8 49.9858 23.72 50.2738 23.56C50.5618 23.4 50.7858 23.168 50.9458 22.864C51.1138 22.56 51.1978 22.204 51.1978 21.796C51.1978 21.38 51.1138 21.024 50.9458 20.728C50.7858 20.424 50.5618 20.192 50.2738 20.032C49.9858 19.872 49.6618 19.792 49.3018 19.792C48.9338 19.792 48.6058 19.872 48.3178 20.032C48.0378 20.192 47.8138 20.424 47.6458 20.728C47.4778 21.024 47.3938 21.38 47.3938 21.796C47.3938 22.204 47.4778 22.56 47.6458 22.864C47.8138 23.168 48.0378 23.4 48.3178 23.56C48.6058 23.72 48.9298 23.8 49.2898 23.8ZM54.1442 25V18.592H55.5722V20.356L55.4042 19.84C55.5962 19.408 55.8962 19.08 56.3042 18.856C56.7202 18.632 57.2362 18.52 57.8522 18.52V19.948C57.7882 19.932 57.7282 19.924 57.6722 19.924C57.6162 19.916 57.5602 19.912 57.5042 19.912C56.9362 19.912 56.4842 20.08 56.1482 20.416C55.8122 20.744 55.6442 21.236 55.6442 21.892V25H54.1442ZM62.078 25.084C61.366 25.084 60.742 24.944 60.206 24.664C59.678 24.376 59.266 23.984 58.97 23.488C58.682 22.992 58.538 22.428 58.538 21.796C58.538 21.156 58.678 20.592 58.958 20.104C59.246 19.608 59.638 19.22 60.134 18.94C60.638 18.66 61.21 18.52 61.85 18.52C62.474 18.52 63.03 18.656 63.518 18.928C64.006 19.2 64.39 19.584 64.67 20.08C64.95 20.576 65.09 21.16 65.09 21.832C65.09 21.896 65.086 21.968 65.078 22.048C65.078 22.128 65.074 22.204 65.066 22.276H59.726V21.28H64.274L63.686 21.592C63.694 21.224 63.618 20.9 63.458 20.62C63.298 20.34 63.078 20.12 62.798 19.96C62.526 19.8 62.21 19.72 61.85 19.72C61.482 19.72 61.158 19.8 60.878 19.96C60.606 20.12 60.39 20.344 60.23 20.632C60.078 20.912 60.002 21.244 60.002 21.628V21.868C60.002 22.252 60.09 22.592 60.266 22.888C60.442 23.184 60.69 23.412 61.01 23.572C61.33 23.732 61.698 23.812 62.114 23.812C62.474 23.812 62.798 23.756 63.086 23.644C63.374 23.532 63.63 23.356 63.854 23.116L64.658 24.04C64.37 24.376 64.006 24.636 63.566 24.82C63.134 24.996 62.638 25.084 62.078 25.084ZM73.8793 25.12C73.2393 25.12 72.6433 25.016 72.0913 24.808C71.5473 24.592 71.0713 24.292 70.6633 23.908C70.2633 23.516 69.9513 23.056 69.7273 22.528C69.5033 22 69.3913 21.424 69.3913 20.8C69.3913 20.176 69.5033 19.6 69.7273 19.072C69.9513 18.544 70.2673 18.088 70.6753 17.704C71.0833 17.312 71.5593 17.012 72.1033 16.804C72.6473 16.588 73.2433 16.48 73.8913 16.48C74.5793 16.48 75.2073 16.6 75.7753 16.84C76.3433 17.072 76.8233 17.42 77.2153 17.884L76.2073 18.832C75.9033 18.504 75.5633 18.26 75.1873 18.1C74.8113 17.932 74.4033 17.848 73.9633 17.848C73.5233 17.848 73.1193 17.92 72.7513 18.064C72.3913 18.208 72.0753 18.412 71.8033 18.676C71.5393 18.94 71.3313 19.252 71.1793 19.612C71.0353 19.972 70.9633 20.368 70.9633 20.8C70.9633 21.232 71.0353 21.628 71.1793 21.988C71.3313 22.348 71.5393 22.66 71.8033 22.924C72.0753 23.188 72.3913 23.392 72.7513 23.536C73.1193 23.68 73.5233 23.752 73.9633 23.752C74.4033 23.752 74.8113 23.672 75.1873 23.512C75.5633 23.344 75.9033 23.092 76.2073 22.756L77.2153 23.716C76.8233 24.172 76.3433 24.52 75.7753 24.76C75.2073 25 74.5753 25.12 73.8793 25.12ZM78.566 25V18.592H79.994V20.356L79.826 19.84C80.018 19.408 80.318 19.08 80.726 18.856C81.142 18.632 81.658 18.52 82.274 18.52V19.948C82.21 19.932 82.15 19.924 82.094 19.924C82.038 19.916 81.982 19.912 81.926 19.912C81.358 19.912 80.906 20.08 80.57 20.416C80.234 20.744 80.066 21.236 80.066 21.892V25H78.566ZM86.4999 25.084C85.7879 25.084 85.1639 24.944 84.6279 24.664C84.0999 24.376 83.6879 23.984 83.3919 23.488C83.1039 22.992 82.9599 22.428 82.9599 21.796C82.9599 21.156 83.0999 20.592 83.3799 20.104C83.6679 19.608 84.0599 19.22 84.5559 18.94C85.0599 18.66 85.6319 18.52 86.2719 18.52C86.8959 18.52 87.4519 18.656 87.9399 18.928C88.4279 19.2 88.8119 19.584 89.0919 20.08C89.3719 20.576 89.5119 21.16 89.5119 21.832C89.5119 21.896 89.5079 21.968 89.4999 22.048C89.4999 22.128 89.4959 22.204 89.4879 22.276H84.1479V21.28H88.6959L88.1079 21.592C88.1159 21.224 88.0399 20.9 87.8799 20.62C87.7199 20.34 87.4999 20.12 87.2199 19.96C86.9479 19.8 86.6319 19.72 86.2719 19.72C85.9039 19.72 85.5799 19.8 85.2999 19.96C85.0279 20.12 84.8119 20.344 84.6519 20.632C84.4999 20.912 84.4239 21.244 84.4239 21.628V21.868C84.4239 22.252 84.5119 22.592 84.6879 22.888C84.8639 23.184 85.1119 23.412 85.4319 23.572C85.7519 23.732 86.1199 23.812 86.5359 23.812C86.8959 23.812 87.2199 23.756 87.5079 23.644C87.7959 23.532 88.0519 23.356 88.2759 23.116L89.0799 24.04C88.7919 24.376 88.4279 24.636 87.9879 24.82C87.5559 24.996 87.0599 25.084 86.4999 25.084ZM93.6648 25.084C93.0488 25.084 92.4928 24.948 91.9968 24.676C91.5088 24.396 91.1248 24.012 90.8448 23.524C90.5648 23.036 90.4248 22.46 90.4248 21.796C90.4248 21.132 90.5648 20.556 90.8448 20.068C91.1248 19.58 91.5088 19.2 91.9968 18.928C92.4928 18.656 93.0488 18.52 93.6648 18.52C94.2008 18.52 94.6808 18.64 95.1048 18.88C95.5288 19.112 95.8648 19.468 96.1128 19.948C96.3608 20.428 96.4848 21.044 96.4848 21.796C96.4848 22.54 96.3648 23.156 96.1248 23.644C95.8848 24.124 95.5528 24.484 95.1288 24.724C94.7048 24.964 94.2168 25.084 93.6648 25.084ZM93.8448 23.8C94.2048 23.8 94.5248 23.72 94.8048 23.56C95.0928 23.4 95.3208 23.168 95.4888 22.864C95.6648 22.56 95.7528 22.204 95.7528 21.796C95.7528 21.38 95.6648 21.024 95.4888 20.728C95.3208 20.424 95.0928 20.192 94.8048 20.032C94.5248 19.872 94.2048 19.792 93.8448 19.792C93.4848 19.792 93.1608 19.872 92.8728 20.032C92.5928 20.192 92.3648 20.424 92.1888 20.728C92.0208 21.024 91.9368 21.38 91.9368 21.796C91.9368 22.204 92.0208 22.56 92.1888 22.864C92.3648 23.168 92.5928 23.4 92.8728 23.56C93.1608 23.72 93.4848 23.8 93.8448 23.8ZM95.7888 25V23.488L95.8488 21.784L95.7288 20.08V16.096H97.2168V25H95.7888ZM99.191 25V18.592H100.691V25H99.191ZM99.947 17.536C99.667 17.536 99.435 17.448 99.251 17.272C99.075 17.096 98.987 16.884 98.987 16.636C98.987 16.38 99.075 16.168 99.251 16C99.435 15.824 99.667 15.736 99.947 15.736C100.227 15.736 100.455 15.82 100.631 15.988C100.815 16.148 100.907 16.352 100.907 16.6C100.907 16.864 100.819 17.088 100.643 17.272C100.467 17.448 100.235 17.536 99.947 17.536ZM105.072 25.084C104.368 25.084 103.824 24.904 103.44 24.544C103.056 24.176 102.864 23.636 102.864 22.924V17.176H104.364V22.888C104.364 23.192 104.44 23.428 104.592 23.596C104.752 23.764 104.972 23.848 105.252 23.848C105.588 23.848 105.868 23.76 106.092 23.584L106.512 24.652C106.336 24.796 106.12 24.904 105.864 24.976C105.608 25.048 105.344 25.084 105.072 25.084ZM101.808 19.84V18.64H106.08V19.84H101.808Z" fill="#283540"/>
<rect x="88" y="65" width="25" height="20" rx="5" fill="#44CDFC"/>
<path d="M93.288 78L95.6 72.816L95.872 73.28H92.696L93.192 72.776V74.232H92.224V72.4H96.576V73.096L94.4 78H93.288ZM99.3989 78.08C98.9563 78.08 98.5563 77.968 98.1989 77.744C97.8469 77.52 97.5696 77.1947 97.3669 76.768C97.1643 76.336 97.0629 75.8133 97.0629 75.2C97.0629 74.5867 97.1643 74.0667 97.3669 73.64C97.5696 73.208 97.8469 72.88 98.1989 72.656C98.5563 72.432 98.9563 72.32 99.3989 72.32C99.8469 72.32 100.247 72.432 100.599 72.656C100.951 72.88 101.228 73.208 101.431 73.64C101.639 74.0667 101.743 74.5867 101.743 75.2C101.743 75.8133 101.639 76.336 101.431 76.768C101.228 77.1947 100.951 77.52 100.599 77.744C100.247 77.968 99.8469 78.08 99.3989 78.08ZM99.3989 77.176C99.6603 77.176 99.8869 77.1067 100.079 76.968C100.271 76.824 100.42 76.6053 100.527 76.312C100.639 76.0187 100.695 75.648 100.695 75.2C100.695 74.7467 100.639 74.376 100.527 74.088C100.42 73.7947 100.271 73.5787 100.079 73.44C99.8869 73.296 99.6603 73.224 99.3989 73.224C99.1483 73.224 98.9243 73.296 98.7269 73.44C98.5349 73.5787 98.3829 73.7947 98.2709 74.088C98.1643 74.376 98.1109 74.7467 98.1109 75.2C98.1109 75.648 98.1643 76.0187 98.2709 76.312C98.3829 76.6053 98.5349 76.824 98.7269 76.968C98.9243 77.1067 99.1483 77.176 99.3989 77.176ZM103.23 78L107.054 72.4H107.838L104.014 78H103.23ZM103.694 75.416C103.432 75.416 103.2 75.352 102.998 75.224C102.795 75.096 102.638 74.9173 102.526 74.688C102.414 74.4587 102.358 74.1893 102.358 73.88C102.358 73.5707 102.414 73.3013 102.526 73.072C102.638 72.8427 102.795 72.664 102.998 72.536C103.2 72.408 103.432 72.344 103.694 72.344C103.966 72.344 104.2 72.408 104.398 72.536C104.6 72.664 104.758 72.8427 104.87 73.072C104.982 73.3013 105.038 73.5707 105.038 73.88C105.038 74.1893 104.982 74.4587 104.87 74.688C104.758 74.9173 104.6 75.096 104.398 75.224C104.2 75.352 103.966 75.416 103.694 75.416ZM103.702 74.856C103.915 74.856 104.08 74.7733 104.198 74.608C104.32 74.4373 104.382 74.1947 104.382 73.88C104.382 73.5653 104.32 73.3253 104.198 73.16C104.08 72.9893 103.915 72.904 103.702 72.904C103.488 72.904 103.318 72.9893 103.19 73.16C103.067 73.3307 103.006 73.5707 103.006 73.88C103.006 74.1893 103.067 74.4293 103.19 74.6C103.318 74.7707 103.488 74.856 103.702 74.856ZM107.366 78.056C107.104 78.056 106.872 77.992 106.67 77.864C106.467 77.736 106.31 77.5573 106.198 77.328C106.086 77.0987 106.03 76.8293 106.03 76.52C106.03 76.2107 106.086 75.9413 106.198 75.712C106.31 75.4827 106.467 75.304 106.67 75.176C106.872 75.048 107.104 74.984 107.366 74.984C107.638 74.984 107.872 75.048 108.07 75.176C108.272 75.304 108.43 75.4827 108.542 75.712C108.654 75.9413 108.71 76.2107 108.71 76.52C108.71 76.8293 108.654 77.0987 108.542 77.328C108.43 77.5573 108.272 77.736 108.07 77.864C107.872 77.992 107.638 78.056 107.366 78.056ZM107.366 77.496C107.579 77.496 107.747 77.4107 107.87 77.24C107.992 77.0693 108.054 76.8293 108.054 76.52C108.054 76.2107 107.992 75.9707 107.87 75.8C107.747 75.6293 107.579 75.544 107.366 75.544C107.158 75.544 106.99 75.6293 106.862 75.8C106.739 75.9653 106.678 76.2053 106.678 76.52C106.678 76.8347 106.739 77.0773 106.862 77.248C106.99 77.4133 107.158 77.496 107.366 77.496Z" fill="white"/>
<path d="M26 68C29.961 70.1667 39.44 73.2 45.6683 68C53.4537 61.5 51.8146 46.5 63.2878 45C74.761 43.5 75.5805 59 87.4634 54.5C96.9698 50.9 106.449 41.3333 110 37" stroke="#C8C8C8" stroke-width="2" stroke-linecap="round"/>
<path d="M26 68C29.961 70.1667 39.44 73.2 45.6683 68C53.4537 61.5 51.8146 46.5 63.2878 45C74.761 43.5 75.5805 59 87.4634 54.5" stroke="#44CDFC" stroke-width="3" stroke-linecap="round"/>
<circle cx="89.5" cy="53.5" r="4.5" fill="#44CDFC"/>
</g>
<defs>
<filter id="filter0_dddd_249_747" x="0" y="0" width="140" height="159" filterUnits="userSpaceOnUse" color-interpolation-filters="sRGB">
<feFlood flood-opacity="0" result="BackgroundImageFix"/>
<feColorMatrix in="SourceAlpha" type="matrix" values="0 0 0 0 0 0 0 0 0 0 0 0 0 0 0 0 0 0 127 0" result="hardAlpha"/>
<feOffset dy="1"/>
<feGaussianBlur stdDeviation="1"/>
<feColorMatrix type="matrix" values="0 0 0 0 1 0 0 0 0 1 0 0 0 0 1 0 0 0 0.1 0"/>
<feBlend mode="normal" in2="BackgroundImageFix" result="effect1_dropShadow_249_747"/>
<feColorMatrix in="SourceAlpha" type="matrix" values="0 0 0 0 0 0 0 0 0 0 0 0 0 0 0 0 0 0 127 0" result="hardAlpha"/>
<feOffset dy="5"/>
<feGaussianBlur stdDeviation="2.5"/>
<feColorMatrix type="matrix" values="0 0 0 0 1 0 0 0 0 1 0 0 0 0 1 0 0 0 0.09 0"/>
<feBlend mode="normal" in2="effect1_dropShadow_249_747" result="effect2_dropShadow_249_747"/>
<feColorMatrix in="SourceAlpha" type="matrix" values="0 0 0 0 0 0 0 0 0 0 0 0 0 0 0 0 0 0 127 0" result="hardAlpha"/>
<feOffset dy="10"/>
<feGaussianBlur stdDeviation="3"/>
<feColorMatrix type="matrix" values="0 0 0 0 1 0 0 0 0 1 0 0 0 0 1 0 0 0 0.05 0"/>
<feBlend mode="normal" in2="effect2_dropShadow_249_747" result="effect3_dropShadow_249_747"/>
<feColorMatrix in="SourceAlpha" type="matrix" values="0 0 0 0 0 0 0 0 0 0 0 0 0 0 0 0 0 0 127 0" result="hardAlpha"/>
<feOffset dy="18"/>
<feGaussianBlur stdDeviation="3.5"/>
<feColorMatrix type="matrix" values="0 0 0 0 1 0 0 0 0 1 0 0 0 0 1 0 0 0 0.01 0"/>
<feBlend mode="normal" in2="effect3_dropShadow_249_747" result="effect4_dropShadow_249_747"/>
<feBlend mode="normal" in="SourceGraphic" in2="effect4_dropShadow_249_747" result="shape"/>
</filter>
<clipPath id="bgblur_0_249_747_clip_path" transform="translate(93 99)"><path d="M7 31C7 14.4315 20.4315 1 37 1H103C119.569 1 133 14.4315 133 31V104C133 120.569 119.569 134 103 134H37C20.4315 134 7 120.569 7 104V31Z"/>
</clipPath></defs>
</svg>
