<svg width="140" height="159" viewBox="0 0 140 159" fill="none" xmlns="http://www.w3.org/2000/svg">
<g filter="url(#filter0_dddd_249_733)">
<path d="M7 31C7 14.4315 20.4315 1 37 1H103C119.569 1 133 14.4315 133 31V104C133 120.569 119.569 134 103 134H37C20.4315 134 7 120.569 7 104V31Z" fill="white"/>
<path d="M7.5 31C7.5 14.7076 20.7076 1.5 37 1.5H103C119.292 1.5 132.5 14.7076 132.5 31V104C132.5 120.292 119.292 133.5 103 133.5H37C20.7076 133.5 7.5 120.292 7.5 104V31Z" stroke="white" stroke-opacity="0.5" style="mix-blend-mode:overlay"/>
<path d="M40.016 106.096C39.376 106.096 38.784 105.992 38.24 105.784C37.704 105.568 37.236 105.268 36.836 104.884C36.444 104.492 36.136 104.036 35.912 103.516C35.688 102.996 35.576 102.424 35.576 101.8C35.576 101.176 35.688 100.604 35.912 100.084C36.136 99.564 36.448 99.112 36.848 98.728C37.248 98.336 37.716 98.036 38.252 97.828C38.796 97.612 39.388 97.504 40.028 97.504C40.676 97.504 41.272 97.616 41.816 97.84C42.368 98.056 42.836 98.38 43.22 98.812L42.44 99.568C42.12 99.232 41.76 98.984 41.36 98.824C40.96 98.656 40.532 98.572 40.076 98.572C39.604 98.572 39.164 98.652 38.756 98.812C38.356 98.972 38.008 99.196 37.712 99.484C37.416 99.772 37.184 100.116 37.016 100.516C36.856 100.908 36.776 101.336 36.776 101.8C36.776 102.264 36.856 102.696 37.016 103.096C37.184 103.488 37.416 103.828 37.712 104.116C38.008 104.404 38.356 104.628 38.756 104.788C39.164 104.948 39.604 105.028 40.076 105.028C40.532 105.028 40.96 104.948 41.36 104.788C41.76 104.62 42.12 104.364 42.44 104.02L43.22 104.776C42.836 105.208 42.368 105.536 41.816 105.76C41.272 105.984 40.672 106.096 40.016 106.096ZM44.9319 106V97.6H48.2079C48.9439 97.6 49.5719 97.716 50.0919 97.948C50.6119 98.18 51.0119 98.516 51.2919 98.956C51.5719 99.396 51.7119 99.92 51.7119 100.528C51.7119 101.136 51.5719 101.66 51.2919 102.1C51.0119 102.532 50.6119 102.868 50.0919 103.108C49.5719 103.34 48.9439 103.456 48.2079 103.456H45.5919L46.1319 102.892V106H44.9319ZM46.1319 103.012L45.5919 102.412H48.1719C48.9399 102.412 49.5199 102.248 49.9119 101.92C50.3119 101.592 50.5119 101.128 50.5119 100.528C50.5119 99.928 50.3119 99.464 49.9119 99.136C49.5199 98.808 48.9399 98.644 48.1719 98.644H45.5919L46.1319 98.044V103.012ZM53.4748 106V97.6H56.7508C57.4868 97.6 58.1148 97.716 58.6348 97.948C59.1548 98.18 59.5548 98.516 59.8348 98.956C60.1148 99.396 60.2548 99.92 60.2548 100.528C60.2548 101.136 60.1148 101.66 59.8348 102.1C59.5548 102.532 59.1548 102.864 58.6348 103.096C58.1148 103.328 57.4868 103.444 56.7508 103.444H54.1348L54.6748 102.892V106H53.4748ZM59.0908 106L56.9548 102.952H58.2388L60.3988 106H59.0908ZM54.6748 103.012L54.1348 102.424H56.7148C57.4828 102.424 58.0628 102.26 58.4548 101.932C58.8548 101.596 59.0548 101.128 59.0548 100.528C59.0548 99.928 58.8548 99.464 58.4548 99.136C58.0628 98.808 57.4828 98.644 56.7148 98.644H54.1348L54.6748 98.044V103.012ZM67.6363 106.096C67.0683 106.096 66.5643 106.004 66.1243 105.82C65.6843 105.636 65.3363 105.38 65.0803 105.052C64.8243 104.724 64.6963 104.344 64.6963 103.912C64.6963 103.536 64.7803 103.192 64.9482 102.88C65.1163 102.568 65.3843 102.268 65.7523 101.98C66.1203 101.684 66.6043 101.38 67.2043 101.068C67.6923 100.812 68.0723 100.588 68.3443 100.396C68.6243 100.204 68.8203 100.024 68.9323 99.856C69.0523 99.68 69.1123 99.492 69.1123 99.292C69.1123 99.02 69.0163 98.8 68.8243 98.632C68.6323 98.456 68.3563 98.368 67.9963 98.368C67.6203 98.368 67.3243 98.464 67.1083 98.656C66.9003 98.84 66.7963 99.084 66.7963 99.388C66.7963 99.54 66.8203 99.688 66.8683 99.832C66.9243 99.968 67.0203 100.124 67.1562 100.3C67.3003 100.468 67.5043 100.684 67.7683 100.948L72.2083 105.364L71.5603 106.132L66.8443 101.44C66.5643 101.16 66.3443 100.912 66.1843 100.696C66.0243 100.472 65.9083 100.256 65.8363 100.048C65.7643 99.84 65.7283 99.628 65.7283 99.412C65.7283 99.036 65.8203 98.708 66.0043 98.428C66.1963 98.14 66.4603 97.92 66.7963 97.768C67.1403 97.608 67.5403 97.528 67.9963 97.528C68.4203 97.528 68.7883 97.6 69.1003 97.744C69.4123 97.88 69.6523 98.08 69.8203 98.344C69.9963 98.6 70.0843 98.912 70.0843 99.28C70.0843 99.6 70.0043 99.896 69.8443 100.168C69.6923 100.44 69.4443 100.704 69.1003 100.96C68.7563 101.216 68.2923 101.492 67.7083 101.788C67.2283 102.036 66.8523 102.268 66.5803 102.484C66.3083 102.692 66.1123 102.9 65.9923 103.108C65.8803 103.316 65.8243 103.544 65.8243 103.792C65.8243 104.056 65.9003 104.292 66.0523 104.5C66.2123 104.7 66.4323 104.856 66.7123 104.968C67.0003 105.08 67.3323 105.136 67.7083 105.136C68.2443 105.136 68.7283 105.02 69.1603 104.788C69.5923 104.556 69.9523 104.208 70.2403 103.744C70.5363 103.28 70.7523 102.704 70.8883 102.016L71.8123 102.316C71.6523 103.124 71.3763 103.808 70.9843 104.368C70.6003 104.928 70.1243 105.356 69.5563 105.652C68.9883 105.948 68.3483 106.096 67.6363 106.096ZM75.5935 106L79.3975 97.6H80.5855L84.4015 106H83.1415L79.7455 98.272H80.2255L76.8295 106H75.5935ZM77.2135 103.9L77.5375 102.94H82.2655L82.6135 103.9H77.2135ZM86.7465 101.224H91.0665V102.244H86.7465V101.224ZM86.8545 104.956H91.7505V106H85.6545V97.6H91.5825V98.644H86.8545V104.956ZM93.6936 106V97.6H97.2336C98.1296 97.6 98.9176 97.776 99.5976 98.128C100.286 98.48 100.818 98.972 101.194 99.604C101.578 100.236 101.77 100.968 101.77 101.8C101.77 102.632 101.578 103.364 101.194 103.996C100.818 104.628 100.286 105.12 99.5976 105.472C98.9176 105.824 98.1296 106 97.2336 106H93.6936ZM94.8936 104.956H97.1616C97.8576 104.956 98.4576 104.824 98.9616 104.56C99.4736 104.296 99.8696 103.928 100.15 103.456C100.43 102.976 100.57 102.424 100.57 101.8C100.57 101.168 100.43 100.616 100.15 100.144C99.8696 99.672 99.4736 99.304 98.9616 99.04C98.4576 98.776 97.8576 98.644 97.1616 98.644H94.8936V104.956Z" fill="#283540"/>
<path d="M26.352 117.224H30.672V118.244H26.352V117.224ZM26.46 120.956H31.356V122H25.26V113.6H31.188V114.644H26.46V120.956ZM40.2777 122.096C39.6377 122.096 39.0457 121.992 38.5017 121.784C37.9657 121.568 37.4977 121.268 37.0977 120.884C36.7057 120.492 36.3977 120.036 36.1737 119.516C35.9497 118.996 35.8377 118.424 35.8377 117.8C35.8377 117.176 35.9497 116.604 36.1737 116.084C36.3977 115.564 36.7097 115.112 37.1097 114.728C37.5097 114.336 37.9777 114.036 38.5137 113.828C39.0577 113.612 39.6497 113.504 40.2897 113.504C40.9377 113.504 41.5337 113.616 42.0777 113.84C42.6297 114.056 43.0977 114.38 43.4817 114.812L42.7017 115.568C42.3817 115.232 42.0217 114.984 41.6217 114.824C41.2217 114.656 40.7937 114.572 40.3377 114.572C39.8657 114.572 39.4257 114.652 39.0177 114.812C38.6177 114.972 38.2697 115.196 37.9737 115.484C37.6777 115.772 37.4457 116.116 37.2777 116.516C37.1177 116.908 37.0377 117.336 37.0377 117.8C37.0377 118.264 37.1177 118.696 37.2777 119.096C37.4457 119.488 37.6777 119.828 37.9737 120.116C38.2697 120.404 38.6177 120.628 39.0177 120.788C39.4257 120.948 39.8657 121.028 40.3377 121.028C40.7937 121.028 41.2217 120.948 41.6217 120.788C42.0217 120.62 42.3817 120.364 42.7017 120.02L43.4817 120.776C43.0977 121.208 42.6297 121.536 42.0777 121.76C41.5337 121.984 40.9337 122.096 40.2777 122.096ZM46.2856 117.224H50.6056V118.244H46.2856V117.224ZM46.3936 120.956H51.2896V122H45.1936V113.6H51.1216V114.644H46.3936V120.956ZM53.2327 122V113.6H56.5087C57.2447 113.6 57.8727 113.716 58.3927 113.948C58.9127 114.18 59.3127 114.516 59.5927 114.956C59.8727 115.396 60.0127 115.92 60.0127 116.528C60.0127 117.136 59.8727 117.66 59.5927 118.1C59.3127 118.532 58.9127 118.864 58.3927 119.096C57.8727 119.328 57.2447 119.444 56.5087 119.444H53.8927L54.4327 118.892V122H53.2327ZM58.8487 122L56.7127 118.952H57.9967L60.1567 122H58.8487ZM54.4327 119.012L53.8927 118.424H56.4727C57.2407 118.424 57.8207 118.26 58.2127 117.932C58.6127 117.596 58.8127 117.128 58.8127 116.528C58.8127 115.928 58.6127 115.464 58.2127 115.136C57.8207 114.808 57.2407 114.644 56.4727 114.644H53.8927L54.4327 114.044V119.012ZM63.5022 122V114.644H60.6222V113.6H67.5702V114.644H64.6902V122H63.5022ZM68.8772 122V113.6H70.0772V122H68.8772ZM73.672 117.572H78.004V118.604H73.672V117.572ZM73.792 122H72.592V113.6H78.52V114.644H73.792V122ZM80.2092 122V113.6H81.4092V122H80.2092ZM87.6801 122.096C87.0401 122.096 86.4481 121.992 85.9041 121.784C85.3681 121.568 84.9001 121.268 84.5001 120.884C84.1081 120.492 83.8001 120.036 83.5761 119.516C83.3521 118.996 83.2401 118.424 83.2401 117.8C83.2401 117.176 83.3521 116.604 83.5761 116.084C83.8001 115.564 84.1121 115.112 84.5121 114.728C84.9121 114.336 85.3801 114.036 85.9161 113.828C86.4601 113.612 87.0521 113.504 87.6921 113.504C88.3401 113.504 88.9361 113.616 89.4801 113.84C90.0321 114.056 90.5001 114.38 90.8841 114.812L90.1041 115.568C89.7841 115.232 89.4241 114.984 89.0241 114.824C88.6241 114.656 88.1961 114.572 87.7401 114.572C87.2681 114.572 86.8281 114.652 86.4201 114.812C86.0201 114.972 85.6721 115.196 85.3761 115.484C85.0801 115.772 84.8481 116.116 84.6801 116.516C84.5201 116.908 84.4401 117.336 84.4401 117.8C84.4401 118.264 84.5201 118.696 84.6801 119.096C84.8481 119.488 85.0801 119.828 85.3761 120.116C85.6721 120.404 86.0201 120.628 86.4201 120.788C86.8281 120.948 87.2681 121.028 87.7401 121.028C88.1961 121.028 88.6241 120.948 89.0241 120.788C89.4241 120.62 89.7841 120.364 90.1041 120.02L90.8841 120.776C90.5001 121.208 90.0321 121.536 89.4801 121.76C88.9361 121.984 88.3361 122.096 87.6801 122.096ZM91.1247 122L94.9287 113.6H96.1167L99.9327 122H98.6727L95.2767 114.272H95.7567L92.3607 122H91.1247ZM92.7447 119.9L93.0687 118.94H97.7967L98.1447 119.9H92.7447ZM102.432 122V114.644H99.5519V113.6H106.5V114.644H103.62V122H102.432ZM108.899 117.224H113.219V118.244H108.899V117.224ZM109.007 120.956H113.903V122H107.807V113.6H113.735V114.644H109.007V120.956Z" fill="#283540"/>
<path d="M34.732 25.12C34.076 25.12 33.448 25.028 32.848 24.844C32.248 24.652 31.772 24.408 31.42 24.112L31.96 22.9C32.296 23.164 32.712 23.384 33.208 23.56C33.704 23.736 34.212 23.824 34.732 23.824C35.172 23.824 35.528 23.776 35.8 23.68C36.072 23.584 36.272 23.456 36.4 23.296C36.528 23.128 36.592 22.94 36.592 22.732C36.592 22.476 36.5 22.272 36.316 22.12C36.132 21.96 35.892 21.836 35.596 21.748C35.308 21.652 34.984 21.564 34.624 21.484C34.272 21.404 33.916 21.312 33.556 21.208C33.204 21.096 32.88 20.956 32.584 20.788C32.296 20.612 32.06 20.38 31.876 20.092C31.692 19.804 31.6 19.436 31.6 18.988C31.6 18.532 31.72 18.116 31.96 17.74C32.208 17.356 32.58 17.052 33.076 16.828C33.58 16.596 34.216 16.48 34.984 16.48C35.488 16.48 35.988 16.544 36.484 16.672C36.98 16.8 37.412 16.984 37.78 17.224L37.288 18.436C36.912 18.212 36.524 18.048 36.124 17.944C35.724 17.832 35.34 17.776 34.972 17.776C34.54 17.776 34.188 17.828 33.916 17.932C33.652 18.036 33.456 18.172 33.328 18.34C33.208 18.508 33.148 18.7 33.148 18.916C33.148 19.172 33.236 19.38 33.412 19.54C33.596 19.692 33.832 19.812 34.12 19.9C34.416 19.988 34.744 20.076 35.104 20.164C35.464 20.244 35.82 20.336 36.172 20.44C36.532 20.544 36.856 20.68 37.144 20.848C37.44 21.016 37.676 21.244 37.852 21.532C38.036 21.82 38.128 22.184 38.128 22.624C38.128 23.072 38.004 23.488 37.756 23.872C37.516 24.248 37.144 24.552 36.64 24.784C36.136 25.008 35.5 25.12 34.732 25.12ZM42.4709 25.084C41.7989 25.084 41.1989 24.944 40.6709 24.664C40.1509 24.376 39.7429 23.984 39.4469 23.488C39.1509 22.992 39.0029 22.428 39.0029 21.796C39.0029 21.156 39.1509 20.592 39.4469 20.104C39.7429 19.608 40.1509 19.22 40.6709 18.94C41.1989 18.66 41.7989 18.52 42.4709 18.52C43.0949 18.52 43.6429 18.648 44.1149 18.904C44.5949 19.152 44.9589 19.52 45.2069 20.008L44.0549 20.68C43.8629 20.376 43.6269 20.152 43.3469 20.008C43.0749 19.864 42.7789 19.792 42.4589 19.792C42.0909 19.792 41.7589 19.872 41.4629 20.032C41.1669 20.192 40.9349 20.424 40.7669 20.728C40.5989 21.024 40.5149 21.38 40.5149 21.796C40.5149 22.212 40.5989 22.572 40.7669 22.876C40.9349 23.172 41.1669 23.4 41.4629 23.56C41.7589 23.72 42.0909 23.8 42.4589 23.8C42.7789 23.8 43.0749 23.728 43.3469 23.584C43.6269 23.44 43.8629 23.216 44.0549 22.912L45.2069 23.584C44.9589 24.064 44.5949 24.436 44.1149 24.7C43.6429 24.956 43.0949 25.084 42.4709 25.084ZM49.2898 25.084C48.6338 25.084 48.0498 24.944 47.5378 24.664C47.0258 24.376 46.6218 23.984 46.3258 23.488C46.0298 22.992 45.8818 22.428 45.8818 21.796C45.8818 21.156 46.0298 20.592 46.3258 20.104C46.6218 19.608 47.0258 19.22 47.5378 18.94C48.0498 18.66 48.6338 18.52 49.2898 18.52C49.9538 18.52 50.5418 18.66 51.0538 18.94C51.5738 19.22 51.9778 19.604 52.2658 20.092C52.5618 20.58 52.7098 21.148 52.7098 21.796C52.7098 22.428 52.5618 22.992 52.2658 23.488C51.9778 23.984 51.5738 24.376 51.0538 24.664C50.5418 24.944 49.9538 25.084 49.2898 25.084ZM49.2898 23.8C49.6578 23.8 49.9858 23.72 50.2738 23.56C50.5618 23.4 50.7858 23.168 50.9458 22.864C51.1138 22.56 51.1978 22.204 51.1978 21.796C51.1978 21.38 51.1138 21.024 50.9458 20.728C50.7858 20.424 50.5618 20.192 50.2738 20.032C49.9858 19.872 49.6618 19.792 49.3018 19.792C48.9338 19.792 48.6058 19.872 48.3178 20.032C48.0378 20.192 47.8138 20.424 47.6458 20.728C47.4778 21.024 47.3938 21.38 47.3938 21.796C47.3938 22.204 47.4778 22.56 47.6458 22.864C47.8138 23.168 48.0378 23.4 48.3178 23.56C48.6058 23.72 48.9298 23.8 49.2898 23.8ZM54.1442 25V18.592H55.5722V20.356L55.4042 19.84C55.5962 19.408 55.8962 19.08 56.3042 18.856C56.7202 18.632 57.2362 18.52 57.8522 18.52V19.948C57.7882 19.932 57.7282 19.924 57.6722 19.924C57.6162 19.916 57.5602 19.912 57.5042 19.912C56.9362 19.912 56.4842 20.08 56.1482 20.416C55.8122 20.744 55.6442 21.236 55.6442 21.892V25H54.1442ZM62.078 25.084C61.366 25.084 60.742 24.944 60.206 24.664C59.678 24.376 59.266 23.984 58.97 23.488C58.682 22.992 58.538 22.428 58.538 21.796C58.538 21.156 58.678 20.592 58.958 20.104C59.246 19.608 59.638 19.22 60.134 18.94C60.638 18.66 61.21 18.52 61.85 18.52C62.474 18.52 63.03 18.656 63.518 18.928C64.006 19.2 64.39 19.584 64.67 20.08C64.95 20.576 65.09 21.16 65.09 21.832C65.09 21.896 65.086 21.968 65.078 22.048C65.078 22.128 65.074 22.204 65.066 22.276H59.726V21.28H64.274L63.686 21.592C63.694 21.224 63.618 20.9 63.458 20.62C63.298 20.34 63.078 20.12 62.798 19.96C62.526 19.8 62.21 19.72 61.85 19.72C61.482 19.72 61.158 19.8 60.878 19.96C60.606 20.12 60.39 20.344 60.23 20.632C60.078 20.912 60.002 21.244 60.002 21.628V21.868C60.002 22.252 60.09 22.592 60.266 22.888C60.442 23.184 60.69 23.412 61.01 23.572C61.33 23.732 61.698 23.812 62.114 23.812C62.474 23.812 62.798 23.756 63.086 23.644C63.374 23.532 63.63 23.356 63.854 23.116L64.658 24.04C64.37 24.376 64.006 24.636 63.566 24.82C63.134 24.996 62.638 25.084 62.078 25.084ZM73.8793 25.12C73.2393 25.12 72.6433 25.016 72.0913 24.808C71.5473 24.592 71.0713 24.292 70.6633 23.908C70.2633 23.516 69.9513 23.056 69.7273 22.528C69.5033 22 69.3913 21.424 69.3913 20.8C69.3913 20.176 69.5033 19.6 69.7273 19.072C69.9513 18.544 70.2673 18.088 70.6753 17.704C71.0833 17.312 71.5593 17.012 72.1033 16.804C72.6473 16.588 73.2433 16.48 73.8913 16.48C74.5793 16.48 75.2073 16.6 75.7753 16.84C76.3433 17.072 76.8233 17.42 77.2153 17.884L76.2073 18.832C75.9033 18.504 75.5633 18.26 75.1873 18.1C74.8113 17.932 74.4033 17.848 73.9633 17.848C73.5233 17.848 73.1193 17.92 72.7513 18.064C72.3913 18.208 72.0753 18.412 71.8033 18.676C71.5393 18.94 71.3313 19.252 71.1793 19.612C71.0353 19.972 70.9633 20.368 70.9633 20.8C70.9633 21.232 71.0353 21.628 71.1793 21.988C71.3313 22.348 71.5393 22.66 71.8033 22.924C72.0753 23.188 72.3913 23.392 72.7513 23.536C73.1193 23.68 73.5233 23.752 73.9633 23.752C74.4033 23.752 74.8113 23.672 75.1873 23.512C75.5633 23.344 75.9033 23.092 76.2073 22.756L77.2153 23.716C76.8233 24.172 76.3433 24.52 75.7753 24.76C75.2073 25 74.5753 25.12 73.8793 25.12ZM78.566 25V18.592H79.994V20.356L79.826 19.84C80.018 19.408 80.318 19.08 80.726 18.856C81.142 18.632 81.658 18.52 82.274 18.52V19.948C82.21 19.932 82.15 19.924 82.094 19.924C82.038 19.916 81.982 19.912 81.926 19.912C81.358 19.912 80.906 20.08 80.57 20.416C80.234 20.744 80.066 21.236 80.066 21.892V25H78.566ZM86.4999 25.084C85.7879 25.084 85.1639 24.944 84.6279 24.664C84.0999 24.376 83.6879 23.984 83.3919 23.488C83.1039 22.992 82.9599 22.428 82.9599 21.796C82.9599 21.156 83.0999 20.592 83.3799 20.104C83.6679 19.608 84.0599 19.22 84.5559 18.94C85.0599 18.66 85.6319 18.52 86.2719 18.52C86.8959 18.52 87.4519 18.656 87.9399 18.928C88.4279 19.2 88.8119 19.584 89.0919 20.08C89.3719 20.576 89.5119 21.16 89.5119 21.832C89.5119 21.896 89.5079 21.968 89.4999 22.048C89.4999 22.128 89.4959 22.204 89.4879 22.276H84.1479V21.28H88.6959L88.1079 21.592C88.1159 21.224 88.0399 20.9 87.8799 20.62C87.7199 20.34 87.4999 20.12 87.2199 19.96C86.9479 19.8 86.6319 19.72 86.2719 19.72C85.9039 19.72 85.5799 19.8 85.2999 19.96C85.0279 20.12 84.8119 20.344 84.6519 20.632C84.4999 20.912 84.4239 21.244 84.4239 21.628V21.868C84.4239 22.252 84.5119 22.592 84.6879 22.888C84.8639 23.184 85.1119 23.412 85.4319 23.572C85.7519 23.732 86.1199 23.812 86.5359 23.812C86.8959 23.812 87.2199 23.756 87.5079 23.644C87.7959 23.532 88.0519 23.356 88.2759 23.116L89.0799 24.04C88.7919 24.376 88.4279 24.636 87.9879 24.82C87.5559 24.996 87.0599 25.084 86.4999 25.084ZM93.6648 25.084C93.0488 25.084 92.4928 24.948 91.9968 24.676C91.5088 24.396 91.1248 24.012 90.8448 23.524C90.5648 23.036 90.4248 22.46 90.4248 21.796C90.4248 21.132 90.5648 20.556 90.8448 20.068C91.1248 19.58 91.5088 19.2 91.9968 18.928C92.4928 18.656 93.0488 18.52 93.6648 18.52C94.2008 18.52 94.6808 18.64 95.1048 18.88C95.5288 19.112 95.8648 19.468 96.1128 19.948C96.3608 20.428 96.4848 21.044 96.4848 21.796C96.4848 22.54 96.3648 23.156 96.1248 23.644C95.8848 24.124 95.5528 24.484 95.1288 24.724C94.7048 24.964 94.2168 25.084 93.6648 25.084ZM93.8448 23.8C94.2048 23.8 94.5248 23.72 94.8048 23.56C95.0928 23.4 95.3208 23.168 95.4888 22.864C95.6648 22.56 95.7528 22.204 95.7528 21.796C95.7528 21.38 95.6648 21.024 95.4888 20.728C95.3208 20.424 95.0928 20.192 94.8048 20.032C94.5248 19.872 94.2048 19.792 93.8448 19.792C93.4848 19.792 93.1608 19.872 92.8728 20.032C92.5928 20.192 92.3648 20.424 92.1888 20.728C92.0208 21.024 91.9368 21.38 91.9368 21.796C91.9368 22.204 92.0208 22.56 92.1888 22.864C92.3648 23.168 92.5928 23.4 92.8728 23.56C93.1608 23.72 93.4848 23.8 93.8448 23.8ZM95.7888 25V23.488L95.8488 21.784L95.7288 20.08V16.096H97.2168V25H95.7888ZM99.191 25V18.592H100.691V25H99.191ZM99.947 17.536C99.667 17.536 99.435 17.448 99.251 17.272C99.075 17.096 98.987 16.884 98.987 16.636C98.987 16.38 99.075 16.168 99.251 16C99.435 15.824 99.667 15.736 99.947 15.736C100.227 15.736 100.455 15.82 100.631 15.988C100.815 16.148 100.907 16.352 100.907 16.6C100.907 16.864 100.819 17.088 100.643 17.272C100.467 17.448 100.235 17.536 99.947 17.536ZM105.072 25.084C104.368 25.084 103.824 24.904 103.44 24.544C103.056 24.176 102.864 23.636 102.864 22.924V17.176H104.364V22.888C104.364 23.192 104.44 23.428 104.592 23.596C104.752 23.764 104.972 23.848 105.252 23.848C105.588 23.848 105.868 23.76 106.092 23.584L106.512 24.652C106.336 24.796 106.12 24.904 105.864 24.976C105.608 25.048 105.344 25.084 105.072 25.084ZM101.808 19.84V18.64H106.08V19.84H101.808Z" fill="#283540"/>
<path d="M64.2354 65L66.3144 60.394L66.4964 60.709H63.5844L63.9344 60.366V61.584H63.2624V60.1H66.9584V60.576L64.9774 65H64.2354ZM69.4373 65.056C69.0546 65.056 68.7116 64.958 68.4083 64.762C68.1096 64.566 67.8716 64.2813 67.6943 63.908C67.5216 63.5347 67.4353 63.082 67.4353 62.55C67.4353 62.018 67.5216 61.5653 67.6943 61.192C67.8716 60.8187 68.1096 60.534 68.4083 60.338C68.7116 60.142 69.0546 60.044 69.4373 60.044C69.8153 60.044 70.1559 60.142 70.4593 60.338C70.7626 60.534 71.0006 60.8187 71.1733 61.192C71.3459 61.5653 71.4323 62.018 71.4323 62.55C71.4323 63.082 71.3459 63.5347 71.1733 63.908C71.0006 64.2813 70.7626 64.566 70.4593 64.762C70.1559 64.958 69.8153 65.056 69.4373 65.056ZM69.4373 64.433C69.6939 64.433 69.9179 64.363 70.1093 64.223C70.3053 64.083 70.4569 63.873 70.5643 63.593C70.6763 63.313 70.7323 62.9653 70.7323 62.55C70.7323 62.1347 70.6763 61.787 70.5643 61.507C70.4569 61.227 70.3053 61.017 70.1093 60.877C69.9179 60.737 69.6939 60.667 69.4373 60.667C69.1806 60.667 68.9543 60.737 68.7583 60.877C68.5623 61.017 68.4083 61.227 68.2963 61.507C68.1889 61.787 68.1353 62.1347 68.1353 62.55C68.1353 62.9653 68.1889 63.313 68.2963 63.593C68.4083 63.873 68.5623 64.083 68.7583 64.223C68.9543 64.363 69.1806 64.433 69.4373 64.433ZM72.7762 65L76.1222 60.1H76.6612L73.3152 65H72.7762ZM73.1682 62.732C72.9442 62.732 72.7459 62.676 72.5732 62.564C72.4005 62.452 72.2652 62.2957 72.1672 62.095C72.0739 61.8943 72.0272 61.661 72.0272 61.395C72.0272 61.129 72.0739 60.8957 72.1672 60.695C72.2652 60.4943 72.4005 60.338 72.5732 60.226C72.7459 60.114 72.9442 60.058 73.1682 60.058C73.3969 60.058 73.5952 60.114 73.7632 60.226C73.9359 60.338 74.0689 60.4943 74.1622 60.695C74.2555 60.8957 74.3022 61.129 74.3022 61.395C74.3022 61.661 74.2555 61.8943 74.1622 62.095C74.0689 62.2957 73.9359 62.452 73.7632 62.564C73.5952 62.676 73.3969 62.732 73.1682 62.732ZM73.1682 62.333C73.3829 62.333 73.5509 62.2513 73.6722 62.088C73.7935 61.92 73.8542 61.689 73.8542 61.395C73.8542 61.101 73.7935 60.8723 73.6722 60.709C73.5509 60.541 73.3829 60.457 73.1682 60.457C72.9582 60.457 72.7902 60.541 72.6642 60.709C72.5429 60.8723 72.4822 61.101 72.4822 61.395C72.4822 61.6843 72.5429 61.913 72.6642 62.081C72.7902 62.249 72.9582 62.333 73.1682 62.333ZM76.2692 65.042C76.0452 65.042 75.8469 64.986 75.6742 64.874C75.5015 64.762 75.3685 64.6057 75.2752 64.405C75.1819 64.2043 75.1352 63.971 75.1352 63.705C75.1352 63.439 75.1819 63.2057 75.2752 63.005C75.3685 62.8043 75.5015 62.648 75.6742 62.536C75.8469 62.424 76.0452 62.368 76.2692 62.368C76.4979 62.368 76.6962 62.424 76.8642 62.536C77.0369 62.648 77.1699 62.8043 77.2632 63.005C77.3612 63.2057 77.4102 63.439 77.4102 63.705C77.4102 63.971 77.3612 64.2043 77.2632 64.405C77.1699 64.6057 77.0369 64.762 76.8642 64.874C76.6962 64.986 76.4979 65.042 76.2692 65.042ZM76.2692 64.643C76.4792 64.643 76.6449 64.5613 76.7662 64.398C76.8922 64.23 76.9552 63.999 76.9552 63.705C76.9552 63.4157 76.8922 63.187 76.7662 63.019C76.6449 62.851 76.4792 62.767 76.2692 62.767C76.0592 62.767 75.8912 62.851 75.7652 63.019C75.6439 63.1823 75.5832 63.411 75.5832 63.705C75.5832 63.999 75.6439 64.23 75.7652 64.398C75.8912 64.5613 76.0592 64.643 76.2692 64.643Z" fill="#283540"/>
<circle cx="69.901" cy="61.9011" r="23.5411" stroke="#C8C8C8" stroke-width="6"/>
<path d="M69.4246 38.5401C69.3833 36.8965 70.6859 35.5132 72.3237 35.6564C76.1835 35.9937 79.9351 37.1747 83.3078 39.1301C87.542 41.5849 91.0135 45.1643 93.3377 49.4715C95.6619 53.7787 96.7479 58.6454 96.4752 63.5321C96.2025 68.4188 94.5819 73.1344 91.793 77.1564C89.0041 81.1783 85.1558 84.3493 80.6749 86.3178C76.194 88.2863 71.2554 88.9754 66.4068 88.3088C61.5581 87.6421 56.9888 85.6457 53.2054 82.541C50.1917 80.0678 47.7705 76.9683 46.1014 73.4718C45.3931 71.9881 46.2319 70.2832 47.7857 69.7457C49.3394 69.2083 51.016 70.0459 51.7722 71.5057C53.0497 73.9721 54.8192 76.1634 56.9823 77.9386C59.9157 80.3458 63.4584 81.8937 67.2177 82.4106C70.977 82.9274 74.8061 82.3931 78.2803 80.8669C81.7545 79.3406 84.7381 76.882 86.9005 73.7637C89.0628 70.6454 90.3193 66.9892 90.5307 63.2004C90.7421 59.4116 89.9002 55.6383 88.0982 52.2988C86.2961 48.9593 83.6045 46.184 80.3217 44.2808C77.9008 42.8773 75.2283 41.9884 72.4705 41.6566C70.8382 41.4602 69.466 40.1836 69.4246 38.5401Z" fill="#44CDFC"/>
</g>
<defs>
<filter id="filter0_dddd_249_733" x="0" y="0" width="140" height="159" filterUnits="userSpaceOnUse" color-interpolation-filters="sRGB">
<feFlood flood-opacity="0" result="BackgroundImageFix"/>
<feColorMatrix in="SourceAlpha" type="matrix" values="0 0 0 0 0 0 0 0 0 0 0 0 0 0 0 0 0 0 127 0" result="hardAlpha"/>
<feOffset dy="1"/>
<feGaussianBlur stdDeviation="1"/>
<feColorMatrix type="matrix" values="0 0 0 0 1 0 0 0 0 1 0 0 0 0 1 0 0 0 0.1 0"/>
<feBlend mode="normal" in2="BackgroundImageFix" result="effect1_dropShadow_249_733"/>
<feColorMatrix in="SourceAlpha" type="matrix" values="0 0 0 0 0 0 0 0 0 0 0 0 0 0 0 0 0 0 127 0" result="hardAlpha"/>
<feOffset dy="5"/>
<feGaussianBlur stdDeviation="2.5"/>
<feColorMatrix type="matrix" values="0 0 0 0 1 0 0 0 0 1 0 0 0 0 1 0 0 0 0.09 0"/>
<feBlend mode="normal" in2="effect1_dropShadow_249_733" result="effect2_dropShadow_249_733"/>
<feColorMatrix in="SourceAlpha" type="matrix" values="0 0 0 0 0 0 0 0 0 0 0 0 0 0 0 0 0 0 127 0" result="hardAlpha"/>
<feOffset dy="10"/>
<feGaussianBlur stdDeviation="3"/>
<feColorMatrix type="matrix" values="0 0 0 0 1 0 0 0 0 1 0 0 0 0 1 0 0 0 0.05 0"/>
<feBlend mode="normal" in2="effect2_dropShadow_249_733" result="effect3_dropShadow_249_733"/>
<feColorMatrix in="SourceAlpha" type="matrix" values="0 0 0 0 0 0 0 0 0 0 0 0 0 0 0 0 0 0 127 0" result="hardAlpha"/>
<feOffset dy="18"/>
<feGaussianBlur stdDeviation="3.5"/>
<feColorMatrix type="matrix" values="0 0 0 0 1 0 0 0 0 1 0 0 0 0 1 0 0 0 0.01 0"/>
<feBlend mode="normal" in2="effect3_dropShadow_249_733" result="effect4_dropShadow_249_733"/>
<feBlend mode="normal" in="SourceGraphic" in2="effect4_dropShadow_249_733" result="shape"/>
</filter>
</defs>
</svg>
