<svg width="50.609375" height="50.609314" viewBox="0 0 50.6094 50.6093" fill="none" xmlns="http://www.w3.org/2000/svg" xmlns:xlink="http://www.w3.org/1999/xlink">
	<desc>
			Created with Pixso.
	</desc>
	<defs/>
	<path id="Vector" d="M50.6 25.3C50.6 11.32 39.28 0 25.3 0C11.32 0 0 11.32 0 25.3C0 39.28 11.32 50.6 25.3 50.6C39.28 50.6 50.6 39.28 50.6 25.3Z" fill="#0091EA" fill-opacity="1.000000" fill-rule="nonzero"/>
	<path id="Vector" d="M40.94 17.99L40.8 17.21L39.25 17.49L39.39 18.27C39.48 18.79 39.53 19.32 39.53 19.85C39.53 24.72 35.57 28.68 30.7 28.68C25.83 28.68 21.87 24.72 21.87 19.85C21.87 14.98 25.83 11.02 30.7 11.02C31.05 11.02 31.41 11.04 31.75 11.08L32.53 11.17L32.72 9.61L31.94 9.52C31.53 9.47 31.11 9.44 30.7 9.44C24.96 9.44 20.29 14.11 20.29 19.85C20.29 22.59 21.36 25.09 23.1 26.95L16.61 33.44C15.91 32.96 15.06 32.67 14.14 32.67C11.73 32.67 9.78 34.63 9.78 37.03C9.78 39.44 11.74 41.39 14.14 41.39C16.55 41.39 18.51 39.44 18.51 37.03C18.51 36.11 18.22 35.26 17.73 34.55L24.26 28.02C26.04 29.42 28.27 30.25 30.7 30.25C36.44 30.25 41.1 25.59 41.1 19.85C41.1 19.22 41.05 18.6 40.94 17.99Z" fill="#FFFFFF" fill-opacity="1.000000" fill-rule="nonzero"/>
	<path id="Vector" d="M23.93 20.02L23.93 20.44L24.77 20.44L24.77 20.02C24.77 16.57 27.58 13.75 31.04 13.75C31.29 13.75 31.54 13.77 31.79 13.8L32.21 13.85L32.3 13.01L31.89 12.96C31.61 12.93 31.32 12.92 31.04 12.92C27.12 12.92 23.93 16.1 23.93 20.02Z" fill="#FFFFFF" fill-opacity="1.000000" fill-rule="nonzero"/>
</svg>
