<svg width="120.000000" height="215.984863" viewBox="0 0 120 215.985" fill="none" xmlns="http://www.w3.org/2000/svg" xmlns:xlink="http://www.w3.org/1999/xlink">
	<defs>
		<clipPath id="clip483_2616">
			<rect id="validation-approval" rx="0.000000" width="40.793579" height="40.793579" transform="translate(44.332031 131.500244)" fill="white" fill-opacity="0"/>
		</clipPath>
	</defs>
	<circle id="Ellipse 78" cx="53.332031" cy="16.500000" r="16.500000" fill="#FFFFFF" fill-opacity="1.000000"/>
	<circle id="Ellipse 78" cx="53.332031" cy="16.500000" r="14.000000" stroke="currentColor" stroke-opacity="1.000000" stroke-width="5.000000"/>
	<path id="Subtract" d="M52.7744 92.0156L52.7744 88.9661C22.7803 94.2727 0 120.469 0 151.985C0 187.331 28.6533 215.985 64 215.985C85.7793 215.985 105.019 205.105 116.578 188.485L112.879 188.485C101.755 203.358 84.002 212.985 64 212.985C30.3105 212.985 3 185.674 3 151.985C3 122.13 24.4463 97.2852 52.7744 92.0156Z" clip-rule="evenodd" fill="#283540" fill-opacity="1.000000" fill-rule="evenodd"/>
	<path id="Line 9" d="M52.5 91.98L52.83 33" stroke="currentColor" stroke-opacity="1.000000" stroke-width="3.000000"/>
	<circle id="Ellipse 83" r="56.000000" transform="matrix(0 1 -1 0 64 151.985)" fill="#283540" fill-opacity="1.000000"/>
	<circle id="Ellipse 84" r="44.500000" transform="matrix(0 1 -1 0 64.5 152.485)" fill="#FFFFFF" fill-opacity="1.000000"/>
	<g clip-path="url(#clip483_2616)">
		<path id="Vector 6891" d="M77.32 145.13C77.32 140.21 77.32 137.74 75.79 136.21C74.26 134.68 71.8 134.68 66.87 134.68L61.65 134.68C56.73 134.68 54.26 134.68 52.73 136.21C51.2 137.74 51.2 140.21 51.2 145.13L51.2 159.06C51.2 163.99 51.2 166.45 52.73 167.98C54.26 169.51 72.4 168.64 77.32 168.64C77.32 160.14 77.32 145.13 77.32 145.13Z" stroke="#283540" stroke-opacity="1.000000" stroke-width="3.000000"/>
		<path id="Vector 6663" d="M59.91 146.29C59.91 146.29 61 146.29 62.09 148.61C62.09 148.61 65.54 142.81 68.62 141.65" stroke="#283540" stroke-opacity="1.000000" stroke-width="2.000000" stroke-linejoin="round" stroke-linecap="round"/>
		<path id="Vector 6892" d="M58.17 155.58L65.13 155.58" stroke="currentColor" stroke-opacity="1.000000" stroke-width="2.000000" stroke-linecap="round"/>
		<path id="Vector 6893" d="M58.17 160.8L65.13 160.8" stroke="currentColor" stroke-opacity="1.000000" stroke-width="2.000000" stroke-linecap="round"/>
	</g>
</svg>
