<svg width="20" height="20" viewBox="0 0 20 20" fill="none" xmlns="http://www.w3.org/2000/svg">
<path d="M5.8335 15C4.30939 15.3431 3.3335 15.8702 3.3335 16.4614C3.3335 17.4952 6.31826 18.3333 10.0002 18.3333C13.6821 18.3333 16.6668 17.4952 16.6668 16.4614C16.6668 15.8702 15.6909 15.3431 14.1668 15" stroke="#141B34" stroke-width="1.5" stroke-linecap="round"/>
<path d="M12.0837 7.49984C12.0837 8.65043 11.1509 9.58317 10.0003 9.58317C8.84973 9.58317 7.91699 8.65043 7.91699 7.49984C7.91699 6.34924 8.84973 5.4165 10.0003 5.4165C11.1509 5.4165 12.0837 6.34924 12.0837 7.49984Z" stroke="#141B34" stroke-width="1.5"/>
<path d="M11.0482 14.5778C10.7671 14.8485 10.3914 14.9998 10.0005 14.9998C9.60948 14.9998 9.23381 14.8485 8.95274 14.5778C6.37891 12.0838 2.92965 9.29778 4.61175 5.25295C5.52125 3.06594 7.70445 1.6665 10.0005 1.6665C12.2965 1.6665 14.4797 3.06594 15.3892 5.25295C17.0691 9.29268 13.6283 12.0924 11.0482 14.5778Z" stroke="#141B34" stroke-width="1.5"/>
</svg>
