<svg width="20" height="20" viewBox="0 0 20 20" fill="none" xmlns="http://www.w3.org/2000/svg">
<path d="M1.6665 5L7.42736 8.26414C9.55117 9.46751 10.4485 9.46751 12.5723 8.26414L18.3332 5" stroke="#161C22" stroke-width="1.5" stroke-linejoin="round"/>
<path d="M1.67964 11.2295C1.73412 13.7841 1.76136 15.0614 2.70397 16.0076C3.64657 16.9538 4.95845 16.9868 7.58219 17.0527C9.19926 17.0933 10.8004 17.0933 12.4175 17.0527C15.0412 16.9868 16.3531 16.9538 17.2957 16.0076C18.2383 15.0614 18.2656 13.7841 18.32 11.2295C18.3376 10.4081 18.3376 9.59157 18.32 8.77017C18.2656 6.21555 18.2383 4.93825 17.2957 3.99206C16.3531 3.04586 15.0412 3.0129 12.4175 2.94698C10.8004 2.90635 9.19926 2.90635 7.58219 2.94697C4.95844 3.01289 3.64657 3.04585 2.70396 3.99204C1.76136 4.93824 1.73412 6.21554 1.67964 8.77015C1.66212 9.59156 1.66212 10.4081 1.67964 11.2295Z" stroke="#161C22" stroke-width="1.5" stroke-linejoin="round"/>
</svg>
