<svg width="20" height="20" viewBox="0 0 20 20" fill="none" xmlns="http://www.w3.org/2000/svg">
<path d="M4.1665 7.49984C4.1665 4.74998 4.1665 3.37505 5.02078 2.52078C5.87505 1.6665 7.24998 1.6665 9.99984 1.6665C12.7497 1.6665 14.1246 1.6665 14.9789 2.52078C15.8332 3.37505 15.8332 4.74998 15.8332 7.49984V12.4998C15.8332 15.2497 15.8332 16.6246 14.9789 17.4789C14.1246 18.3332 12.7497 18.3332 9.99984 18.3332C7.24998 18.3332 5.87505 18.3332 5.02078 17.4789C4.1665 16.6246 4.1665 15.2497 4.1665 12.4998V7.49984Z" stroke="#141B34" stroke-width="1.5" stroke-linecap="round"/>
<path d="M9.1665 15.833H10.8332" stroke="#141B34" stroke-width="1.5" stroke-linecap="round" stroke-linejoin="round"/>
<path d="M7.5 1.6665L7.57417 2.11152C7.7349 3.07591 7.81527 3.55811 8.14599 3.85154C8.49098 4.15762 8.98012 4.1665 10 4.1665C11.0199 4.1665 11.509 4.15762 11.854 3.85154C12.1847 3.55811 12.2651 3.07591 12.4258 2.11152L12.5 1.6665" stroke="#141B34" stroke-width="1.5" stroke-linejoin="round"/>
</svg>
